<svg width="100" height="100" viewBox="0 0 100 100" fill="none" xmlns="http://www.w3.org/2000/svg">
<path d="M50 0C40.111 0 30.444 2.93245 22.2215 8.42652C13.999 13.9206 7.59043 21.7295 3.80605 30.8658C0.0216642 40.0021 -0.968502 50.0555 0.960758 59.7545C2.89002 69.4535 7.65206 78.3627 14.6447 85.3553C21.6373 92.3479 30.5465 97.11 40.2455 99.0392C49.9445 100.969 59.9979 99.9783 69.1342 96.194C78.2705 92.4096 86.0794 86.0009 91.5735 77.7785C97.0675 69.556 100 59.889 100 50C100 43.4339 98.7067 36.9321 96.194 30.8658C93.6812 24.7995 89.9983 19.2876 85.3553 14.6447C80.7124 10.0017 75.2005 6.31876 69.1342 3.80602C63.0679 1.29329 56.5661 0 50 0ZM80 45H55L64.05 35.95C62.2214 34.0738 60.0369 32.5812 57.6244 31.5595C55.212 30.5379 52.6199 30.0077 50 30C46.2566 29.9878 42.5849 31.0265 39.4027 32.9979C36.2204 34.9693 33.6552 37.7942 31.999 41.1513C30.3428 44.5084 29.6621 48.263 30.0342 51.9879C30.4063 55.7128 31.8163 59.2585 34.1039 62.2216C36.3914 65.1848 39.4647 67.4465 42.974 68.7494C46.4834 70.0523 50.288 70.3441 53.955 69.5917C57.6221 68.8393 61.0043 67.0728 63.7171 64.4933C66.4298 61.9137 68.3641 58.6245 69.3 55H79.55C78.5965 60.6409 76.0499 65.8917 72.2106 70.133C68.3712 74.3743 63.3992 77.4294 57.8807 78.9381C52.3622 80.4467 46.5274 80.346 41.0643 78.6478C35.6012 76.9495 30.7376 73.7246 27.0469 69.3533C23.3563 64.9819 20.9925 59.6464 20.2343 53.9759C19.476 48.3054 20.355 42.5363 22.7676 37.3489C25.1801 32.1615 29.0256 27.7721 33.8507 24.6982C38.6757 21.6243 44.279 19.9942 50 20C53.9327 20.0021 57.8253 20.7906 61.4489 22.319C65.0724 23.8474 68.3538 26.085 71.1 28.9L80 20V45Z" fill="white"/>
</svg>
