<svg width="707" height="793" viewBox="0 0 707 793" fill="none" xmlns="http://www.w3.org/2000/svg">
<path d="M51.1247 368.563C67.8904 279.136 76.2542 234.384 108.067 207.937C139.918 181.53 185.365 181.53 276.336 181.53H430.626C521.635 181.53 567.082 181.53 598.933 207.937C630.746 234.384 639.11 279.097 655.875 368.563L684.518 521.431C708.082 647.241 719.883 710.146 685.511 751.573C651.14 793 587.208 793 459.308 793H247.692C119.792 793 55.8221 793 21.4886 751.573C-12.883 710.146 -1.0821 647.241 22.4816 521.431L51.1247 368.563Z" fill="#D8D8D8"/>
<path d="M267.553 143.313C267.553 120.508 276.606 98.6365 292.721 82.5107C308.836 66.3848 330.692 57.3253 353.482 57.3253C376.272 57.3253 398.129 66.3848 414.243 82.5107C430.358 98.6365 439.411 120.508 439.411 143.313V181.53C461.027 181.53 479.97 181.607 496.698 182.104V143.313C496.698 105.304 481.609 68.852 454.751 41.9755C427.893 15.099 391.465 0 353.482 0C315.499 0 279.072 15.099 252.214 41.9755C225.356 68.852 210.267 105.304 210.267 143.313V182.104C226.994 181.607 245.937 181.53 267.553 181.53V143.313ZM210.649 367.914C211.895 360.414 216.067 353.716 222.248 349.294C225.308 347.104 228.77 345.539 232.435 344.688C236.1 343.837 239.896 343.717 243.607 344.334C247.319 344.952 250.872 346.294 254.065 348.286C257.258 350.277 260.027 352.879 262.215 355.941C264.403 359.004 265.967 362.468 266.818 366.135C267.668 369.803 267.788 373.602 267.171 377.315L228.98 606.617C228.363 610.331 227.022 613.887 225.031 617.081C223.041 620.276 220.442 623.048 217.381 625.237C214.321 627.427 210.859 628.992 207.194 629.843C203.53 630.694 199.733 630.814 196.022 630.197C192.31 629.579 188.757 628.237 185.564 626.245C182.372 624.254 179.602 621.652 177.414 618.59C175.226 615.527 173.662 612.063 172.812 608.396C171.961 604.728 171.841 600.929 172.458 597.216L210.649 367.914ZM463.357 344.334C467.068 343.716 470.865 343.836 474.53 344.686C478.196 345.537 481.657 347.102 484.718 349.292C487.779 351.481 490.378 354.253 492.368 357.448C494.358 360.644 495.7 364.2 496.316 367.914L534.506 597.216C535.123 600.929 535.003 604.728 534.153 608.396C533.303 612.063 531.739 615.527 529.551 618.59C527.362 621.652 524.593 624.254 521.4 626.245C518.208 628.237 514.654 629.579 510.943 630.197C507.231 630.814 503.435 630.694 499.77 629.843C496.105 628.992 492.644 627.427 489.583 625.237C486.523 623.048 483.923 620.276 481.933 617.082C479.943 613.887 478.601 610.331 477.984 606.617L439.793 377.315C439.176 373.602 439.295 369.802 440.145 366.135C440.995 362.467 442.559 359.003 444.747 355.94C446.935 352.877 449.705 350.276 452.898 348.284C456.091 346.293 459.645 344.951 463.357 344.334Z" fill="#878787"/>
</svg>
