<svg width="350" height="350" viewBox="0 0 350 350" fill="none" xmlns="http://www.w3.org/2000/svg">
<circle cx="175" cy="175" r="175" fill="#4CD09A"/>
<path d="M268.96 91.612C270.491 92.6915 271.794 94.0618 272.795 95.6444C273.796 97.2271 274.475 98.9912 274.793 100.836C275.111 102.681 275.062 104.57 274.649 106.396C274.236 108.222 273.466 109.948 272.384 111.477L191.533 225.765C186.396 233.005 182.043 239.161 178.119 243.849C174.024 248.694 169.415 253.226 163.307 256.105C154.257 260.394 143.932 261.172 134.34 258.285C127.833 256.333 122.639 252.499 117.944 248.281C113.449 244.22 108.355 238.762 102.39 232.378L79.0594 207.397C77.7313 206.038 76.6884 204.428 75.9919 202.662C75.2955 200.895 74.9596 199.007 75.0039 197.109C75.0482 195.211 75.4719 193.341 76.25 191.609C77.0282 189.876 78.1451 188.317 79.5352 187.022C80.9254 185.726 82.5606 184.722 84.345 184.066C86.1293 183.411 88.0268 183.119 89.926 183.206C91.8251 183.293 93.6877 183.759 95.4042 184.575C97.1207 185.391 98.6566 186.542 99.9217 187.959L122.839 212.498C129.331 219.438 133.598 223.984 137.08 227.133C140.505 230.212 141.989 230.824 142.574 230.995C145.37 231.85 148.353 231.637 151.107 230.34C151.763 230.026 153.233 229.128 156.244 225.523C159.326 221.861 162.993 216.688 168.559 208.836L249.068 95.0321C250.149 93.5028 251.521 92.2013 253.106 91.2017C254.691 90.2022 256.457 89.5242 258.304 89.2066C260.152 88.889 262.043 88.938 263.872 89.3507C265.7 89.7634 267.429 90.5318 268.96 91.612Z" fill="white"/>
</svg>
