<svg xmlns="http://www.w3.org/2000/svg" version="1.1" xmlns:xlink="http://www.w3.org/1999/xlink" width="570" height="557"><svg width="570" height="557" viewBox="0 0 570 557" fill="none" xmlns="http://www.w3.org/2000/svg">
<path d="M422.701 447.299C326.407 551.516 163.861 557.938 59.6441 461.644C59.6441 461.644 137.695 377.15 233.99 272.933C330.284 168.716 408.356 84.2417 408.356 84.2417C512.573 180.536 518.996 343.082 422.701 447.299Z" fill="#0097A7"></path>
<g filter="url(#filter0_d_752_78)">
<path d="M494.503 25.2623L162.688 128.958L337.869 193.191L494.503 25.2623Z" fill="#FDD835"></path>
</g>
<path d="M430.617 64.7186L237.64 125.026L339.522 162.382L430.617 64.7186Z" fill="#F0F0F0" fill-opacity="0.64"></path>
<g filter="url(#filter1_d_752_78)">
<circle cx="233" cy="274" r="198" fill="#E53935"></circle>
</g>
<g filter="url(#filter2_d_752_78)">
<path d="M338.147 342.779L338.226 342.755C338.226 342.755 281.617 299.427 276.063 295.238C272.619 294.472 252.48 287.793 252.131 275.238C260.725 267.812 273.222 260.678 291.679 260.537C291.71 260.526 291.806 260.519 291.854 260.519C300.202 260.69 308.629 258.601 315.334 254.182C315.802 253.871 316.905 253.024 316.905 253.024L363.016 209.197L357.477 205.005L301.067 250.047L294.409 245.011L352.47 201.226L347.59 197.566L289.188 241.621L283.665 237.452L342.074 193.398L336.703 189.355L278.293 233.404L271.746 228.476L332.037 185.818L326.974 182L271.413 214.645C271.413 214.645 269.398 215.926 268.7 216.459C261.074 222.207 257.796 230.008 258.892 237.521C258.122 247.052 254.036 254.128 248.736 259.508C145.155 183.083 106.094 191.258 106.094 191.258L103 193.625C103 193.625 172.65 246.297 215.685 278.817C200.585 290.217 127.789 345.119 127.789 345.119L127.797 345.131C127.733 345.178 127.654 345.196 127.579 345.256C122.377 349.182 122.397 355.537 127.587 359.457C132.78 363.377 141.232 363.377 146.413 359.469C146.496 359.409 146.52 359.343 146.568 359.307L146.583 359.319C146.583 359.319 219.471 304.364 234.484 293.047C242.355 298.99 247.608 302.958 248.64 303.736C255.019 308.572 319.246 357.01 319.246 357.01H319.325C319.325 357.069 319.396 357.123 319.468 357.148C324.658 361.091 333.179 361.091 338.361 357.148C343.622 353.239 343.622 346.836 338.361 342.899C338.297 342.838 338.226 342.815 338.147 342.779Z" fill="white"></path>
<path d="M338.147 342.779L338.226 342.755C338.226 342.755 281.617 299.427 276.063 295.238C272.619 294.472 252.48 287.793 252.131 275.238C260.725 267.812 273.222 260.678 291.679 260.537C291.71 260.526 291.806 260.519 291.854 260.519C300.202 260.69 308.629 258.601 315.334 254.182C315.802 253.871 316.905 253.024 316.905 253.024L363.016 209.197L357.477 205.005L301.067 250.047L294.409 245.011L352.47 201.226L347.59 197.566L289.188 241.621L283.665 237.452L342.074 193.398L336.703 189.355L278.293 233.404L271.746 228.476L332.037 185.818L326.974 182L271.413 214.645C271.413 214.645 269.398 215.926 268.7 216.459C261.074 222.207 257.796 230.008 258.892 237.521C258.122 247.052 254.036 254.128 248.736 259.508C145.155 183.083 106.094 191.258 106.094 191.258L103 193.625C103 193.625 172.65 246.297 215.685 278.817C200.585 290.217 127.789 345.119 127.789 345.119L127.797 345.131C127.733 345.178 127.654 345.196 127.579 345.256C122.377 349.182 122.397 355.537 127.587 359.457C132.78 363.377 141.232 363.377 146.413 359.469C146.496 359.409 146.52 359.343 146.568 359.307L146.583 359.319C146.583 359.319 219.471 304.364 234.484 293.047C242.355 298.99 247.608 302.958 248.64 303.736C255.019 308.572 319.246 357.01 319.246 357.01H319.325C319.325 357.069 319.396 357.123 319.468 357.148C324.658 361.091 333.179 361.091 338.361 357.148C343.622 353.239 343.622 346.836 338.361 342.899C338.297 342.838 338.226 342.815 338.147 342.779Z" stroke="white"></path>
</g>
<defs>
<filter id="SvgjsFilter1057" x="127.688" y="0.262207" width="441.814" height="277.928" filterUnits="userSpaceOnUse" color-interpolation-filters="sRGB">
<feFlood flood-opacity="0" result="BackgroundImageFix"></feFlood>
<feColorMatrix in="SourceAlpha" type="matrix" values="0 0 0 0 0 0 0 0 0 0 0 0 0 0 0 0 0 0 127 0" result="hardAlpha"></feColorMatrix>
<feOffset dx="20" dy="30"></feOffset>
<feGaussianBlur stdDeviation="27.5"></feGaussianBlur>
<feComposite in2="hardAlpha" operator="out"></feComposite>
<feColorMatrix type="matrix" values="0 0 0 0 0 0 0 0 0 0 0 0 0 0 0 0 0 0 0.15 0"></feColorMatrix>
<feBlend mode="normal" in2="BackgroundImageFix" result="effect1_dropShadow_752_78"></feBlend>
<feBlend mode="normal" in="SourceGraphic" in2="effect1_dropShadow_752_78" result="shape"></feBlend>
</filter>
<filter id="SvgjsFilter1056" x="0" y="51" width="506" height="506" filterUnits="userSpaceOnUse" color-interpolation-filters="sRGB">
<feFlood flood-opacity="0" result="BackgroundImageFix"></feFlood>
<feColorMatrix in="SourceAlpha" type="matrix" values="0 0 0 0 0 0 0 0 0 0 0 0 0 0 0 0 0 0 127 0" result="hardAlpha"></feColorMatrix>
<feOffset dx="20" dy="30"></feOffset>
<feGaussianBlur stdDeviation="27.5"></feGaussianBlur>
<feComposite in2="hardAlpha" operator="out"></feComposite>
<feColorMatrix type="matrix" values="0 0 0 0 0 0 0 0 0 0 0 0 0 0 0 0 0 0 0.15 0"></feColorMatrix>
<feBlend mode="normal" in2="BackgroundImageFix" result="effect1_dropShadow_752_78"></feBlend>
<feBlend mode="normal" in="SourceGraphic" in2="effect1_dropShadow_752_78" result="shape"></feBlend>
</filter>
<filter id="SvgjsFilter1055" x="68" y="176" width="330.016" height="250.398" filterUnits="userSpaceOnUse" color-interpolation-filters="sRGB">
<feFlood flood-opacity="0" result="BackgroundImageFix"></feFlood>
<feColorMatrix in="SourceAlpha" type="matrix" values="0 0 0 0 0 0 0 0 0 0 0 0 0 0 0 0 0 0 127 0" result="hardAlpha"></feColorMatrix>
<feOffset dy="29"></feOffset>
<feGaussianBlur stdDeviation="17.5"></feGaussianBlur>
<feComposite in2="hardAlpha" operator="out"></feComposite>
<feColorMatrix type="matrix" values="0 0 0 0 0 0 0 0 0 0 0 0 0 0 0 0 0 0 0.15 0"></feColorMatrix>
<feBlend mode="normal" in2="BackgroundImageFix" result="effect1_dropShadow_752_78"></feBlend>
<feBlend mode="normal" in="SourceGraphic" in2="effect1_dropShadow_752_78" result="shape"></feBlend>
</filter>
</defs>
</svg><style>@media (prefers-color-scheme: light) { :root { filter: none; } }
@media (prefers-color-scheme: dark) { :root { filter: none; } }
</style></svg>