<svg xmlns="http://www.w3.org/2000/svg" version="1.1" xmlns:xlink="http://www.w3.org/1999/xlink" xmlns:svgjs="http://svgjs.dev/svgjs" width="481" height="533"><svg width="481" height="533" viewBox="0 0 481 533" fill="none" xmlns="http://www.w3.org/2000/svg">
<path fill-rule="evenodd" clip-rule="evenodd" d="M240.266 194.734C279.816 194.734 311.876 226.794 311.876 266.344C311.876 305.893 279.816 337.954 240.266 337.954C200.717 337.954 168.656 305.893 168.656 266.344C168.656 226.794 200.717 194.734 240.266 194.734Z" fill="#EC008C"></path>
<path fill-rule="evenodd" clip-rule="evenodd" d="M240.266 2.60597e-05C279.816 2.60597e-05 311.876 32.0605 311.876 71.6101C311.876 111.16 279.816 143.22 240.266 143.22C200.717 143.22 168.656 111.16 168.656 71.6101C168.656 32.0605 200.717 2.60597e-05 240.266 2.60597e-05Z" fill="#FAB10B"></path>
<path fill-rule="evenodd" clip-rule="evenodd" d="M470.927 133.172C490.702 167.423 478.966 211.218 444.716 230.993C410.465 250.768 366.67 239.033 346.895 204.782C327.12 170.531 338.855 126.736 373.106 106.961C407.357 87.1862 451.152 98.9215 470.927 133.172Z" fill="#EF3120"></path>
<path fill-rule="evenodd" clip-rule="evenodd" d="M470.927 399.516C451.152 433.766 407.357 445.501 373.106 425.727C338.855 405.952 327.12 362.157 346.895 327.906C366.67 293.655 410.465 281.92 444.716 301.695C478.966 321.47 490.702 365.265 470.927 399.516Z" fill="#E07A10"></path>
<path fill-rule="evenodd" clip-rule="evenodd" d="M240.266 532.687C200.717 532.687 168.656 500.627 168.656 461.077C168.656 421.528 200.717 389.468 240.266 389.468C279.816 389.468 311.876 421.528 311.876 461.077C311.876 500.627 279.816 532.687 240.266 532.687Z" fill="#FAB10B"></path>
<path fill-rule="evenodd" clip-rule="evenodd" d="M9.60596 399.516C-10.1686 365.265 1.56615 321.47 35.8172 301.695C70.0678 281.92 113.863 293.655 133.638 327.906C153.412 362.157 141.678 405.952 107.427 425.727C73.1761 445.501 29.3809 433.766 9.60596 399.516Z" fill="#EF3120"></path>
<path fill-rule="evenodd" clip-rule="evenodd" d="M9.60596 133.172C29.3809 98.9215 73.1761 87.1862 107.427 106.961C141.678 126.736 153.413 170.531 133.638 204.782C113.863 239.033 70.0678 250.768 35.8172 230.993C1.56615 211.218 -10.1686 167.423 9.60596 133.172Z" fill="#E07A10"></path>
</svg><style>@media (prefers-color-scheme: light) { :root { filter: none; } }
@media (prefers-color-scheme: dark) { :root { filter: none; } }
</style></svg>