<svg width="58" height="34" viewBox="0 0 58 34" fill="none" xmlns="http://www.w3.org/2000/svg">
<path d="M20 18.4286H11.4286V27H8.57143V18.4286H0V15.5714H8.57143V7H11.4286V15.5714H20V18.4286Z" fill="white"/>
<path d="M30.1694 15.8022C30.8808 11.968 31.2357 10.0492 32.5856 8.91532C33.9371 7.78308 35.8656 7.78308 39.7257 7.78308H46.2727C50.1344 7.78308 52.0629 7.78308 53.4144 8.91532C54.7643 10.0492 55.1192 11.9663 55.8306 15.8022L57.046 22.3564C58.0459 27.7505 58.5467 30.4476 57.0882 32.2238C55.6297 34 52.9169 34 47.4897 34H38.5103C33.0831 34 30.3687 34 28.9118 32.2238C27.4533 30.4476 27.9541 27.7505 28.954 22.3564L30.1694 15.8022Z" fill="white"/>
<path d="M39.3534 6.14458C39.3534 5.1668 39.7375 4.22906 40.4213 3.53766C41.1051 2.84626 42.0325 2.45783 42.9996 2.45783C43.9666 2.45783 44.894 2.84626 45.5778 3.53766C46.2616 4.22906 46.6458 5.1668 46.6458 6.14458V7.78314C47.563 7.78314 48.3668 7.78642 49.0766 7.80772V6.14458C49.0766 4.51494 48.4364 2.95204 47.2967 1.79971C46.157 0.647374 44.6113 0 42.9996 0C41.3878 0 39.8421 0.647374 38.7025 1.79971C37.5628 2.95204 36.9225 4.51494 36.9225 6.14458V7.80772C37.6323 7.78642 38.4361 7.78314 39.3534 7.78314V6.14458ZM36.9388 15.7744C36.9916 15.4528 37.1687 15.1656 37.4309 14.976C37.5608 14.8821 37.7077 14.815 37.8632 14.7786C38.0187 14.7421 38.1798 14.7369 38.3373 14.7634C38.4948 14.7899 38.6455 14.8474 38.781 14.9328C38.9165 15.0182 39.034 15.1297 39.1269 15.261C39.2197 15.3923 39.2861 15.5409 39.3221 15.6981C39.3582 15.8553 39.3633 16.0182 39.3372 16.1775L37.7166 26.0088C37.6904 26.168 37.6335 26.3205 37.549 26.4575C37.4646 26.5944 37.3543 26.7133 37.2244 26.8072C37.0946 26.901 36.9477 26.9681 36.7922 27.0046C36.6367 27.0411 36.4756 27.0462 36.3181 27.0198C36.1606 26.9933 36.0098 26.9357 35.8743 26.8504C35.7389 26.765 35.6213 26.6534 35.5285 26.5221C35.4357 26.3908 35.3693 26.2423 35.3332 26.0851C35.2971 25.9278 35.292 25.7649 35.3182 25.6057L36.9388 15.7744ZM47.6619 14.7634C47.8194 14.7369 47.9805 14.742 48.136 14.7785C48.2915 14.815 48.4384 14.882 48.5683 14.9759C48.6982 15.0698 48.8085 15.1887 48.8929 15.3257C48.9773 15.4627 49.0343 15.6151 49.0604 15.7744L50.6809 25.6057C50.7071 25.7649 50.702 25.9278 50.6659 26.0851C50.6299 26.2423 50.5635 26.3908 50.4707 26.5221C50.3778 26.6534 50.2603 26.765 50.1248 26.8504C49.9893 26.9357 49.8385 26.9933 49.6811 27.0198C49.5236 27.0462 49.3625 27.0411 49.207 27.0046C49.0515 26.9681 48.9046 26.901 48.7747 26.8072C48.6449 26.7133 48.5346 26.5945 48.4501 26.4575C48.3657 26.3205 48.3087 26.168 48.2825 26.0088L46.662 16.1775C46.6358 16.0182 46.6409 15.8553 46.6769 15.6981C46.713 15.5408 46.7794 15.3923 46.8722 15.261C46.9651 15.1297 47.0826 15.0181 47.2181 14.9328C47.3536 14.8474 47.5044 14.7898 47.6619 14.7634Z" fill="#C5C5C5"/>
</svg>
