<svg width="62" height="70" viewBox="0 0 62 70" fill="none" xmlns="http://www.w3.org/2000/svg">
<path d="M4.48335 32.5339C5.95362 24.64 6.68707 20.6896 9.47689 18.3551C12.2701 16.024 16.2555 16.024 24.2331 16.024H37.7635C45.7445 16.024 49.7299 16.024 52.5231 18.3551C55.3129 20.6896 56.0464 24.6366 57.5167 32.5339L60.0285 46.0279C62.0949 57.1335 63.1298 62.6863 60.1156 66.3431C57.1014 70 51.4949 70 40.2787 70H21.7213C10.5051 70 4.89529 70 1.88443 66.3431C-1.12977 62.6863 -0.0948944 57.1335 1.97151 46.0279L4.48335 32.5339Z" fill="#FAB10B"/>
<path d="M23.4632 12.6506C23.4632 10.6375 24.2571 8.70688 25.6703 7.28341C27.0834 5.85994 29.0001 5.06025 30.9987 5.06025C32.9972 5.06025 34.9139 5.85994 36.3271 7.28341C37.7403 8.70688 38.5342 10.6375 38.5342 12.6506V16.0241C40.4298 16.0241 42.091 16.0309 43.5579 16.0747V12.6506C43.5579 9.29546 42.2347 6.07773 39.8794 3.70528C37.5241 1.33283 34.3296 0 30.9987 0C27.6678 0 24.4733 1.33283 22.118 3.70528C19.7627 6.07773 18.4395 9.29546 18.4395 12.6506V16.0747C19.9064 16.0309 21.5676 16.0241 23.4632 16.0241V12.6506ZM18.473 32.4767C18.5822 31.8146 18.9481 31.2233 19.4901 30.833C19.7585 30.6397 20.0621 30.5016 20.3835 30.4264C20.7049 30.3513 21.0378 30.3407 21.3633 30.3952C21.6887 30.4497 22.0003 30.5682 22.2803 30.744C22.5603 30.9198 22.8032 31.1494 22.9951 31.4198C23.1869 31.6901 23.3241 31.9959 23.3986 32.3196C23.4732 32.6433 23.4838 32.9787 23.4297 33.3065L20.0805 53.5475C20.0264 53.8753 19.9088 54.1892 19.7342 54.4713C19.5597 54.7533 19.3318 54.9979 19.0634 55.1912C18.795 55.3845 18.4914 55.5226 18.17 55.5977C17.8486 55.6728 17.5157 55.6835 17.1903 55.629C16.8648 55.5745 16.5532 55.4559 16.2732 55.2801C15.9932 55.1043 15.7503 54.8747 15.5584 54.6044C15.3666 54.334 15.2294 54.0283 15.1549 53.7045C15.0803 53.3808 15.0697 53.0455 15.1238 52.7176L18.473 32.4767ZM40.6341 30.3952C40.9596 30.3406 41.2925 30.3512 41.6139 30.4263C41.9353 30.5014 42.2389 30.6395 42.5073 30.8328C42.7757 31.0261 43.0037 31.2708 43.1782 31.5528C43.3527 31.8349 43.4703 32.1488 43.5244 32.4767L46.8735 52.7176C46.9276 53.0455 46.9171 53.3808 46.8425 53.7045C46.7679 54.0283 46.6308 54.334 46.4389 54.6044C46.247 54.8747 46.0041 55.1043 45.7242 55.2801C45.4442 55.4559 45.1325 55.5745 44.8071 55.629C44.4816 55.6835 44.1487 55.6728 43.8273 55.5977C43.5059 55.5226 43.2024 55.3845 42.934 55.1912C42.6656 54.9979 42.4376 54.7533 42.2631 54.4713C42.0886 54.1892 41.9709 53.8753 41.9168 53.5475L38.5677 33.3065C38.5135 32.9787 38.524 32.6433 38.5985 32.3196C38.6731 31.9958 38.8102 31.69 39.0021 31.4197C39.194 31.1493 39.4369 30.9197 39.7169 30.7439C39.9969 30.5681 40.3086 30.4496 40.6341 30.3952Z" fill="#E07A10"/>
</svg>
