<svg width="900" height="1174" viewBox="0 0 900 1174" fill="none" xmlns="http://www.w3.org/2000/svg">
<rect width="900" height="1174" fill="white"/>
<path fill-rule="evenodd" clip-rule="evenodd" d="M450.355 287.734C489.905 287.734 521.965 319.794 521.965 359.344C521.965 398.893 489.905 430.954 450.355 430.954C410.806 430.954 378.745 398.893 378.745 359.344C378.745 319.794 410.806 287.734 450.355 287.734Z" fill="#EC008C"/>
<path fill-rule="evenodd" clip-rule="evenodd" d="M450.355 93C489.905 93 521.965 125.061 521.965 164.61C521.965 204.16 489.905 236.22 450.355 236.22C410.806 236.22 378.745 204.16 378.745 164.61C378.745 125.061 410.806 93 450.355 93Z" fill="#FAB10B"/>
<path fill-rule="evenodd" clip-rule="evenodd" d="M681.016 226.172C700.79 260.423 689.055 304.218 654.805 323.993C620.554 343.768 576.758 332.033 556.984 297.782C537.209 263.531 548.944 219.736 583.195 199.961C617.446 180.186 661.241 191.922 681.016 226.172Z" fill="#EF3120"/>
<path fill-rule="evenodd" clip-rule="evenodd" d="M681.016 492.516C661.241 526.766 617.446 538.501 583.195 518.727C548.944 498.952 537.209 455.157 556.984 420.906C576.758 386.655 620.554 374.92 654.805 394.695C689.055 414.47 700.79 458.265 681.016 492.516Z" fill="#E07A10"/>
<path fill-rule="evenodd" clip-rule="evenodd" d="M450.355 625.687C410.806 625.687 378.745 593.627 378.745 554.077C378.745 514.528 410.806 482.468 450.355 482.468C489.905 482.468 521.965 514.528 521.965 554.077C521.965 593.627 489.905 625.687 450.355 625.687Z" fill="#FAB10B"/>
<path fill-rule="evenodd" clip-rule="evenodd" d="M219.695 492.516C199.92 458.265 211.655 414.47 245.906 394.695C280.157 374.92 323.952 386.655 343.727 420.906C363.501 455.157 351.767 498.952 317.516 518.727C283.265 538.501 239.47 526.766 219.695 492.516Z" fill="#EF3120"/>
<path fill-rule="evenodd" clip-rule="evenodd" d="M219.695 226.172C239.47 191.922 283.265 180.186 317.516 199.961C351.767 219.736 363.502 263.531 343.727 297.782C323.952 332.033 280.157 343.768 245.906 323.993C211.655 304.218 199.92 260.423 219.695 226.172Z" fill="#E07A10"/>
<path fill-rule="evenodd" clip-rule="evenodd" d="M170.128 734.529C177.832 729.643 186.094 727.217 194.987 727.217C203.487 727.217 210.122 729.6 214.887 734.328C219.69 739.053 222.073 745.688 222.073 754.146H237.285C235.261 748.942 233.313 745.092 231.369 742.589C230.296 741.2 227.196 738.099 222.073 733.334V700.768H203.487V720.031C197.134 715.465 188.477 713.161 177.517 713.161C160.916 713.161 146.817 721.382 135.258 737.823C129.739 745.646 127 752.674 127 758.911C127 767.131 130.136 775.429 136.41 783.851C142.686 792.272 150.671 799.139 160.359 804.502C170.525 810.185 180.614 813.002 190.62 813.002C195.742 813.002 201.304 811.73 207.262 809.148C220.607 803.428 228.309 796.362 230.417 787.983H205.635C199.954 795.923 189.985 799.897 175.609 799.897C166.99 799.897 160.081 797.95 154.797 794.096C148.801 789.768 145.822 783.454 145.822 775.154C145.822 768.123 147.968 760.855 152.258 753.35C156.783 745.448 162.744 739.174 170.128 734.529Z" fill="#231F20"/>
<path fill-rule="evenodd" clip-rule="evenodd" d="M392.365 716.364V730.753C392.286 730.831 392.086 731.071 391.773 731.468C389.864 733.175 388.393 734.444 387.404 735.281V743.897C391.808 742.353 396.338 740.562 400.985 738.618C411.35 734.289 422.786 731.984 435.256 731.747C440.819 731.588 445.228 732.262 448.444 733.733C451.658 735.203 454.954 738.099 458.371 742.468V753.191C451.618 748.107 442.724 745.569 431.642 745.569C413.375 745.569 398.046 751.724 385.734 764.076C379.379 770.428 376.201 776.823 376.201 783.253C376.201 788.973 378.23 794.177 382.276 798.822C390.578 808.434 402.336 813.238 417.621 813.238C428.704 813.238 438.434 811.252 446.814 807.281C449.473 806.051 452.851 804.224 456.943 801.84C457.974 802.516 458.451 804.104 458.451 806.607C469.171 811.053 475.33 813.556 476.958 814.191V769.397C476.958 749.615 475.289 736.473 471.953 729.961C466.989 720.19 455.792 715.304 438.355 715.304C434.145 715.304 429.935 715.701 425.645 716.455C415.788 718.218 410.149 719.373 408.705 719.922C407.705 720.184 407.626 720.303 407.615 719.356V716.364V700.756H392.365V716.364ZM446.179 765.145C454.32 767.888 458.371 770.943 458.371 774.36C458.371 777.696 453.166 782.5 442.802 788.815C430.889 796.044 417.702 799.657 403.288 799.657C392.128 799.657 385.734 796.839 384.148 791.158C384.148 788.099 386.092 784.25 390.066 779.483C399.873 767.69 412.976 761.771 429.339 761.771C433.827 761.771 439.425 762.88 446.179 765.145Z" fill="#231F20"/>
<path fill-rule="evenodd" clip-rule="evenodd" d="M583.27 751.8C583.27 765.621 579.815 776.625 572.906 784.845C568.019 790.68 562.067 797.038 555.117 803.945L577.593 818.003C592.485 801.803 599.953 784.884 599.953 767.293C599.953 753.272 595.702 741.2 587.163 731.114C578.071 720.429 566.633 715.067 552.811 715.067C542.645 715.067 532.954 718.522 523.82 725.395L513.456 733.175V715.084H493.438V806.805L512.501 816.813V782.977C512.501 769.318 516.393 756.45 524.138 744.336C532.917 730.716 543.793 723.881 556.863 723.881C574.457 723.881 583.27 733.175 583.27 751.8Z" fill="#231F20"/>
<path fill-rule="evenodd" clip-rule="evenodd" d="M626.006 732.543C617.783 742.468 613.652 751.166 613.573 758.712C613.495 766.894 616.475 775.352 622.509 784.049C627.631 791.399 634.066 797.829 641.811 803.35C650.865 809.785 659.247 813.002 666.908 813.002C679.022 813.002 691.334 804.9 703.881 788.697V805.334L725.091 814.431V716.364V700.768L725.262 673.001L703.881 661.37V700.768V746.559C693.438 735.163 686.924 728.449 684.342 726.346C676.005 719.315 667.663 715.779 659.363 715.779C646.336 715.779 635.219 721.382 626.006 732.543ZM302.258 717.963C295.026 720.628 287.208 726.543 278.744 735.759V716.364V700.768V673.001L256.346 661.37V700.768V802.559L278.031 814.191V768.003C278.031 761.97 280.495 755.693 285.381 749.182C289.867 743.143 295.543 737.944 302.374 733.575C309.999 728.688 317.112 726.186 323.82 726.028C331.011 725.871 336.608 728.729 340.58 734.644C344.077 739.686 345.785 745.965 345.704 753.47C345.623 766.139 342.129 776.583 335.222 784.884C329.063 792.272 323.584 798.468 318.776 803.51L337.841 814.906C339.786 813.436 342.761 810.738 346.697 806.886C358.572 795.248 364.528 782.222 364.528 767.766C364.528 759.866 362.464 751.842 358.374 743.699C348.959 725.075 334.823 715.779 315.88 715.779C310.837 715.779 306.307 716.497 302.258 717.963ZM629.779 772.256C629.779 759.388 637.402 748.228 652.612 738.735C659.604 734.407 665.442 732.225 670.087 732.225C676.48 732.225 682.597 734.169 688.513 738.062C695.106 742.39 698.404 747.596 698.404 753.628C698.404 758.992 695.504 765.621 689.663 773.564C684.941 779.997 679.818 785.401 674.297 789.848C666.352 796.202 658.886 799.381 651.898 799.381C645.149 799.381 639.666 796.478 635.494 790.642C631.683 785.438 629.779 779.323 629.779 772.256Z" fill="#231F20"/>
<path fill-rule="evenodd" clip-rule="evenodd" d="M752.053 715.025V804.82L771.593 815.62V715.025H752.053Z" fill="#231F20"/>
<path fill-rule="evenodd" clip-rule="evenodd" d="M761.823 674.357C768.389 674.357 773.712 679.68 773.712 686.246C773.712 692.813 768.389 698.136 761.823 698.136C755.257 698.136 749.934 692.813 749.934 686.246C749.934 679.68 755.257 674.357 761.823 674.357Z" fill="#BDBBBC"/>
<path fill-rule="evenodd" clip-rule="evenodd" d="M761.823 698.135C755.257 698.135 749.934 692.812 749.934 686.245C749.934 679.679 755.257 674.356 761.823 674.356C768.389 674.356 773.712 679.679 773.712 686.245C773.712 692.812 768.389 698.135 761.823 698.135Z" fill="#231F20"/>
<path d="M254.179 993.806L253.807 995.062H235.029L235.506 993.806C237.414 993.759 238.682 993.596 239.287 993.328C240.288 992.944 241.033 992.409 241.509 991.723C242.254 990.652 243.034 988.744 243.825 985.998L251.853 958.064C252.539 955.737 252.876 953.98 252.876 952.805C252.876 952.212 252.725 951.712 252.434 951.304C252.143 950.886 251.689 950.572 251.085 950.362C250.491 950.141 249.316 950.037 247.559 950.037L247.967 948.78H265.616L265.244 950.037C263.789 950.013 262.708 950.188 261.998 950.56C260.974 951.06 260.194 951.77 259.671 952.689C259.136 953.62 258.449 955.668 257.6 958.832L249.572 986.696C248.851 989.035 248.49 990.524 248.49 991.164C248.49 991.688 248.63 992.118 248.909 992.491C249.2 992.851 249.653 993.131 250.27 993.328C250.899 993.526 252.201 993.678 254.179 993.806Z" fill="#231F20"/>
<path d="M275.854 964.207L271.41 979.646C275.935 973.329 279.414 969.187 281.822 967.197C284.242 965.208 286.558 964.207 288.791 964.207C290.001 964.207 291.002 964.615 291.793 965.441C292.585 966.266 292.969 967.348 292.969 968.663C292.969 970.013 292.608 971.816 291.863 974.073L287.186 988.29C286.651 989.931 286.383 990.932 286.383 991.292C286.383 991.595 286.465 991.851 286.628 992.06C286.779 992.258 286.953 992.363 287.14 992.363C287.372 992.363 287.675 992.223 288.012 991.944C289.082 991.013 290.246 989.57 291.514 987.616L292.573 988.256C290.56 991.234 288.663 993.34 286.86 994.561C285.615 995.411 284.487 995.83 283.498 995.83C282.695 995.83 282.055 995.574 281.578 995.073C281.101 994.573 280.868 993.898 280.868 993.049C280.868 991.967 281.31 990.094 282.195 987.441L286.721 973.771C287.291 972.061 287.581 970.734 287.581 969.792C287.581 969.338 287.419 968.965 287.105 968.686C286.779 968.396 286.383 968.256 285.918 968.256C285.22 968.256 284.394 968.524 283.44 969.07C281.613 970.094 279.705 971.769 277.738 974.12C275.761 976.47 273.678 979.46 271.48 983.113C270.316 985.033 269.351 987.139 268.583 989.431L266.965 995.062H261.857L268.036 973.631C268.757 971.107 269.118 969.582 269.118 969.07C269.118 968.57 268.92 968.14 268.524 967.779C268.129 967.407 267.64 967.22 267.058 967.22C266.791 967.22 266.314 967.267 265.651 967.348L264.371 967.558L264.057 966.302L275.854 964.207Z" fill="#231F20"/>
<path d="M335.492 946.197L323.509 987.29C322.857 989.512 322.543 990.978 322.543 991.676C322.543 991.874 322.601 992.06 322.729 992.235C322.857 992.421 322.997 992.502 323.136 992.502C323.334 992.502 323.567 992.374 323.846 992.118C324.369 991.618 325.231 990.28 326.452 988.093L327.616 988.814C326.278 991.036 324.928 992.758 323.567 993.992C322.206 995.213 320.926 995.83 319.739 995.83C319.111 995.83 318.564 995.562 318.087 995.016C317.622 994.48 317.389 993.701 317.389 992.712C317.389 991.42 317.726 989.698 318.413 987.535L319.716 983.241C316.074 988.337 312.77 991.862 309.78 993.817C307.721 995.155 305.755 995.83 303.87 995.83C301.961 995.83 300.309 995.062 298.89 993.538C297.471 992.002 296.761 989.919 296.761 987.29C296.761 983.904 297.936 980.298 300.275 976.459C302.613 972.631 305.708 969.501 309.559 967.104C312.584 965.173 315.376 964.207 317.912 964.207C319.239 964.207 320.39 964.452 321.345 964.952C322.31 965.452 323.264 966.278 324.195 967.442L327.429 956.203C327.802 954.911 328.092 953.876 328.325 953.108C328.593 952.2 328.732 951.456 328.732 950.863C328.732 950.385 328.558 949.99 328.22 949.676C327.744 949.292 327.127 949.094 326.382 949.094C325.859 949.094 324.998 949.175 323.788 949.338V948.082L335.492 946.197ZM322.334 970.734C322.334 969.28 321.868 968.105 320.938 967.22C320.007 966.325 318.82 965.882 317.389 965.882C314.224 965.882 310.92 968.256 307.488 972.991C304.056 977.726 302.345 982.264 302.345 986.592C302.345 988.302 302.788 989.605 303.66 990.501C304.533 991.397 305.592 991.851 306.813 991.851C309.57 991.851 312.851 989.291 316.644 984.16C320.437 979.041 322.334 974.562 322.334 970.734Z" fill="#231F20"/>
<path d="M345.905 950.525C346.859 950.525 347.673 950.851 348.337 951.514C349 952.177 349.326 952.992 349.326 953.946C349.326 954.876 348.988 955.679 348.313 956.354C347.639 957.029 346.836 957.366 345.905 957.366C344.974 957.366 344.171 957.029 343.497 956.354C342.822 955.679 342.485 954.876 342.485 953.946C342.485 952.992 342.81 952.177 343.473 951.514C344.137 950.851 344.951 950.525 345.905 950.525ZM347.394 964.068L340.228 988.244C339.75 989.873 339.506 990.85 339.506 991.176C339.506 991.525 339.611 991.804 339.797 992.025C339.995 992.235 340.228 992.351 340.495 992.351C340.798 992.351 341.17 992.176 341.6 991.828C342.764 990.827 343.939 989.372 345.125 987.488L346.324 988.279C344.846 990.618 343.113 992.56 341.123 994.108C339.657 995.259 338.25 995.83 336.9 995.83C336.016 995.83 335.283 995.551 334.724 995.004C334.166 994.457 333.875 993.77 333.875 992.944C333.875 992.095 334.189 990.687 334.794 988.709L339.541 973.282C340.274 970.792 340.635 969.233 340.635 968.605C340.635 968.105 340.46 967.698 340.111 967.384C339.75 967.058 339.273 966.906 338.657 966.906C338.156 966.906 337.132 967.034 335.562 967.279V965.953L347.394 964.068Z" fill="#231F20"/>
<path d="M384.123 964.696L377.561 987.825L376.77 990.908C376.689 991.211 376.642 991.467 376.642 991.665C376.642 991.99 376.724 992.27 376.875 992.514C377.003 992.688 377.166 992.782 377.364 992.782C377.573 992.782 377.841 992.619 378.178 992.304C378.806 991.7 379.644 990.362 380.679 988.29L381.843 989.116C380.516 991.397 379.155 993.096 377.759 994.189C376.363 995.283 375.072 995.83 373.885 995.83C373.059 995.83 372.419 995.585 371.965 995.097C371.512 994.62 371.291 993.91 371.291 992.991C371.291 991.886 371.547 990.42 372.047 988.617L372.803 986.033C369.534 989.908 366.52 992.619 363.775 994.166C361.808 995.272 359.865 995.83 357.969 995.83C356.154 995.83 354.572 995.155 353.257 993.806C351.931 992.456 351.268 990.594 351.268 988.221C351.268 984.672 352.443 980.926 354.793 976.982C357.131 973.038 360.121 969.885 363.728 967.512C366.555 965.639 369.231 964.696 371.732 964.696C373.234 964.696 374.478 965.033 375.479 965.697C376.468 966.36 377.224 967.465 377.747 969.001L378.841 965.534L384.123 964.696ZM371.57 966.371C369.987 966.371 368.312 967.046 366.532 968.384C364.007 970.28 361.762 973.084 359.796 976.819C357.829 980.542 356.852 983.916 356.852 986.929C356.852 988.442 357.294 989.652 358.167 990.524C359.039 991.409 360.04 991.851 361.168 991.851C363.972 991.851 367.021 990.059 370.302 986.464C374.316 981.682 376.258 976.784 376.13 971.758C376.13 969.861 375.723 968.489 374.909 967.64C374.094 966.79 372.978 966.371 371.57 966.371Z" fill="#231F20"/>
<path d="M399.958 964.207L395.514 979.646C400.04 973.329 403.519 969.187 405.927 967.197C408.347 965.208 410.662 964.207 412.896 964.207C414.106 964.207 415.107 964.615 415.898 965.441C416.689 966.266 417.073 967.348 417.073 968.663C417.073 970.013 416.712 971.816 415.967 974.073L411.29 988.29C410.755 989.931 410.487 990.932 410.487 991.292C410.487 991.595 410.569 991.851 410.732 992.06C410.883 992.258 411.057 992.363 411.244 992.363C411.477 992.363 411.779 992.223 412.116 991.944C413.187 991.013 414.35 989.57 415.619 987.616L416.677 988.256C414.665 991.234 412.768 993.34 410.965 994.561C409.719 995.411 408.591 995.83 407.602 995.83C406.8 995.83 406.16 995.574 405.682 995.073C405.206 994.573 404.973 993.898 404.973 993.049C404.973 991.967 405.415 990.094 406.299 987.441L410.825 973.771C411.395 972.061 411.686 970.734 411.686 969.792C411.686 969.338 411.523 968.965 411.209 968.686C410.883 968.396 410.487 968.256 410.022 968.256C409.324 968.256 408.498 968.524 407.544 969.07C405.717 970.094 403.809 971.769 401.843 974.12C399.866 976.47 397.783 979.46 395.584 983.113C394.42 985.033 393.455 987.139 392.687 989.431L391.07 995.062H385.962L392.14 973.631C392.861 971.107 393.222 969.582 393.222 969.07C393.222 968.57 393.024 968.14 392.628 967.779C392.233 967.407 391.745 967.22 391.162 967.22C390.895 967.22 390.418 967.267 389.755 967.348L388.475 967.558L388.161 966.302L399.958 964.207Z" fill="#231F20"/>
<path d="M457.793 977.61L456.397 982.147H438.736L440.132 977.61H457.793Z" fill="#231F20"/>
<path d="M494.582 993.806L494.209 995.062H475.432L475.908 993.806C477.816 993.759 479.085 993.596 479.69 993.328C480.69 992.944 481.435 992.409 481.912 991.723C482.657 990.652 483.436 988.744 484.227 985.998L492.255 958.064C492.941 955.737 493.279 953.98 493.279 952.805C493.279 952.212 493.127 951.712 492.837 951.304C492.546 950.886 492.092 950.572 491.487 950.362C490.893 950.141 489.719 950.037 487.961 950.037L488.369 948.78H506.018L505.646 950.037C504.192 950.013 503.11 950.188 502.4 950.56C501.376 951.06 500.597 951.77 500.073 952.689C499.538 953.62 498.852 955.668 498.002 958.832L489.975 986.696C489.253 989.035 488.892 990.524 488.892 991.164C488.892 991.688 489.032 992.118 489.311 992.491C489.602 992.851 490.056 993.131 490.673 993.328C491.301 993.526 492.604 993.678 494.582 993.806Z" fill="#231F20"/>
<path d="M519.735 955.761L516.967 964.975H521.667L521.108 967.139H516.315L510.137 987.267C509.346 989.547 508.95 991.025 508.95 991.7C508.95 992.06 509.032 992.34 509.194 992.526C509.358 992.723 509.544 992.816 509.765 992.816C510.277 992.816 510.952 992.444 511.778 991.7C512.266 991.246 513.36 989.85 515.035 987.499L516.164 988.36C514.186 991.35 512.324 993.433 510.556 994.608C509.358 995.423 508.148 995.83 506.914 995.83C505.972 995.83 505.204 995.527 504.599 994.911C503.994 994.294 503.691 993.503 503.691 992.537C503.691 991.316 504.075 989.431 504.843 986.906L510.824 967.139H505.623L505.96 965.801C508.462 965.115 510.579 964.103 512.324 962.753C514.07 961.415 516.036 959.076 518.235 955.761H519.735Z" fill="#231F20"/>
<path d="M554.719 964.696L548.157 987.825L547.366 990.908C547.284 991.211 547.238 991.467 547.238 991.665C547.238 991.99 547.32 992.27 547.471 992.514C547.599 992.688 547.762 992.782 547.96 992.782C548.169 992.782 548.436 992.619 548.774 992.304C549.402 991.7 550.24 990.362 551.275 988.29L552.439 989.116C551.112 991.397 549.751 993.096 548.355 994.189C546.959 995.283 545.667 995.83 544.481 995.83C543.655 995.83 543.015 995.585 542.561 995.097C542.107 994.62 541.886 993.91 541.886 992.991C541.886 991.886 542.142 990.42 542.643 988.617L543.399 986.033C540.129 989.908 537.116 992.619 534.37 994.166C532.404 995.272 530.461 995.83 528.565 995.83C526.75 995.83 525.168 995.155 523.853 993.806C522.526 992.456 521.863 990.594 521.863 988.221C521.863 984.672 523.038 980.926 525.388 976.982C527.727 973.038 530.717 969.885 534.324 967.512C537.151 965.639 539.827 964.696 542.328 964.696C543.829 964.696 545.074 965.033 546.074 965.697C547.064 966.36 547.82 967.465 548.343 969.001L549.437 965.534L554.719 964.696ZM542.165 966.371C540.583 966.371 538.908 967.046 537.127 968.384C534.603 970.28 532.358 973.084 530.391 976.819C528.425 980.542 527.448 983.916 527.448 986.929C527.448 988.442 527.89 989.652 528.763 990.524C529.635 991.409 530.636 991.851 531.764 991.851C534.568 991.851 537.616 990.059 540.897 986.464C544.911 981.682 546.854 976.784 546.726 971.758C546.726 969.861 546.319 968.489 545.505 967.64C544.69 966.79 543.573 966.371 542.165 966.371Z" fill="#231F20"/>
<path d="M576.336 946.546L564.318 987.302C563.724 989.338 563.433 990.582 563.433 991.036C563.433 991.374 563.538 991.665 563.724 991.886C563.922 992.118 564.166 992.235 564.446 992.235C564.842 992.235 565.26 992.037 565.714 991.653C566.773 990.699 567.901 989.198 569.064 987.151L570.112 988.209C568.053 991.234 566.156 993.34 564.422 994.538C563.143 995.4 561.921 995.83 560.769 995.83C559.943 995.83 559.257 995.539 558.71 994.957C558.151 994.376 557.872 993.712 557.872 992.944C557.872 992.13 558.256 990.431 559.012 987.883L568.588 955.761C569.344 953.178 569.716 951.689 569.716 951.305C569.716 950.769 569.495 950.327 569.064 949.978C568.634 949.618 567.959 949.443 567.029 949.443C566.505 949.443 565.691 949.525 564.609 949.687V948.431L576.336 946.546Z" fill="#231F20"/>
<path d="M590.193 950.525C591.147 950.525 591.961 950.851 592.625 951.514C593.288 952.177 593.614 952.992 593.614 953.946C593.614 954.876 593.276 955.679 592.601 956.354C591.927 957.029 591.124 957.366 590.193 957.366C589.262 957.366 588.459 957.029 587.785 956.354C587.11 955.679 586.773 954.876 586.773 953.946C586.773 952.992 587.098 952.177 587.761 951.514C588.425 950.851 589.239 950.525 590.193 950.525ZM591.682 964.068L584.516 988.244C584.038 989.873 583.794 990.85 583.794 991.176C583.794 991.525 583.899 991.804 584.085 992.025C584.283 992.235 584.516 992.351 584.783 992.351C585.086 992.351 585.458 992.176 585.888 991.828C587.052 990.827 588.227 989.372 589.413 987.488L590.612 988.279C589.134 990.618 587.401 992.56 585.411 994.108C583.945 995.259 582.538 995.83 581.188 995.83C580.304 995.83 579.571 995.551 579.012 995.004C578.454 994.457 578.163 993.77 578.163 992.944C578.163 992.095 578.477 990.687 579.082 988.709L583.829 973.282C584.562 970.792 584.923 969.233 584.923 968.605C584.923 968.105 584.748 967.698 584.399 967.384C584.038 967.058 583.561 966.906 582.945 966.906C582.444 966.906 581.42 967.034 579.85 967.279V965.953L591.682 964.068Z" fill="#231F20"/>
<path d="M628.412 964.696L621.851 987.825L621.059 990.908C620.978 991.211 620.931 991.467 620.931 991.665C620.931 991.99 621.013 992.27 621.164 992.514C621.292 992.688 621.455 992.782 621.653 992.782C621.862 992.782 622.13 992.619 622.467 992.304C623.095 991.7 623.933 990.362 624.968 988.29L626.132 989.116C624.806 991.397 623.444 993.096 622.049 994.189C620.652 995.283 619.361 995.83 618.174 995.83C617.348 995.83 616.708 995.585 616.254 995.097C615.801 994.62 615.58 993.91 615.58 992.991C615.58 991.886 615.836 990.42 616.336 988.617L617.092 986.033C613.823 989.908 610.809 992.619 608.064 994.166C606.097 995.272 604.154 995.83 602.258 995.83C600.443 995.83 598.861 995.155 597.546 993.806C596.22 992.456 595.557 990.594 595.557 988.221C595.557 984.672 596.732 980.926 599.082 976.982C601.42 973.038 604.41 969.885 608.017 967.512C610.844 965.639 613.52 964.696 616.022 964.696C617.523 964.696 618.768 965.033 619.768 965.697C620.757 966.36 621.513 967.465 622.036 969.001L623.131 965.534L628.412 964.696ZM615.859 966.371C614.276 966.371 612.601 967.046 610.821 968.384C608.296 970.28 606.051 973.084 604.085 976.819C602.118 980.542 601.141 983.916 601.141 986.929C601.141 988.442 601.583 989.652 602.456 990.524C603.328 991.409 604.329 991.851 605.457 991.851C608.261 991.851 611.31 990.059 614.591 986.464C618.605 981.682 620.547 976.784 620.419 971.758C620.419 969.861 620.012 968.489 619.198 967.64C618.383 966.79 617.267 966.371 615.859 966.371Z" fill="#231F20"/>
<path d="M644.246 964.207L639.802 979.646C644.328 973.329 647.807 969.187 650.215 967.197C652.635 965.208 654.95 964.207 657.184 964.207C658.394 964.207 659.395 964.615 660.186 965.441C660.977 966.266 661.361 967.348 661.361 968.663C661.361 970.013 661 971.816 660.255 974.073L655.578 988.29C655.043 989.931 654.775 990.932 654.775 991.292C654.775 991.595 654.857 991.851 655.02 992.06C655.171 992.258 655.345 992.363 655.532 992.363C655.765 992.363 656.067 992.223 656.404 991.944C657.475 991.013 658.638 989.57 659.907 987.616L660.965 988.256C658.953 991.234 657.056 993.34 655.253 994.561C654.007 995.411 652.879 995.83 651.891 995.83C651.088 995.83 650.448 995.574 649.971 995.073C649.494 994.573 649.261 993.898 649.261 993.049C649.261 991.967 649.703 990.094 650.587 987.441L655.113 973.771C655.683 972.061 655.974 970.734 655.974 969.792C655.974 969.338 655.811 968.965 655.497 968.686C655.171 968.396 654.776 968.256 654.31 968.256C653.612 968.256 652.786 968.524 651.832 969.07C650.005 970.094 648.097 971.769 646.131 974.12C644.154 976.47 642.071 979.46 639.872 983.113C638.708 985.033 637.743 987.139 636.975 989.431L635.358 995.062H630.25L636.428 973.631C637.149 971.107 637.51 969.582 637.51 969.07C637.51 968.57 637.312 968.14 636.917 967.779C636.521 967.407 636.033 967.22 635.451 967.22C635.183 967.22 634.706 967.267 634.043 967.348L632.763 967.558L632.449 966.302L644.246 964.207Z" fill="#231F20"/>
<path d="M270.6 1079.4L263.236 1056.93C261.549 1056.95 259.815 1056.77 258.047 1056.41L253.824 1071.1C253.3 1072.75 253.044 1074.14 253.044 1075.28C253.044 1076.16 253.37 1076.84 254.021 1077.34C254.522 1077.72 255.894 1077.98 258.117 1078.15L257.814 1079.4H240.118L240.49 1078.15C242.177 1078.08 243.306 1077.9 243.899 1077.63C244.83 1077.25 245.517 1076.73 245.947 1076.06C246.668 1074.99 247.436 1073.11 248.227 1070.41L256.267 1042.44C256.813 1040.57 257.093 1039.12 257.093 1038.1C257.093 1037.05 256.662 1036.17 255.813 1035.44C254.952 1034.7 253.742 1034.35 252.148 1034.38L252.555 1033.12H267.645C272.706 1033.12 276.348 1034.08 278.57 1035.98C280.804 1037.89 281.921 1040.4 281.921 1043.52C281.921 1046.5 280.781 1049.22 278.489 1051.69C276.196 1054.16 273.055 1055.72 269.076 1056.38L273.52 1069.94C274.602 1073.27 275.696 1075.44 276.79 1076.44C277.884 1077.44 279.64 1078.01 282.072 1078.15L281.7 1079.4H270.6ZM258.605 1054.46C260.048 1054.66 261.328 1054.76 262.456 1054.76C266.33 1054.76 269.39 1053.68 271.636 1051.5C273.881 1049.33 275.01 1046.62 275.01 1043.38C275.01 1040.86 274.3 1038.93 272.893 1037.58C271.473 1036.24 269.355 1035.56 266.54 1035.56C265.807 1035.56 264.958 1035.66 263.957 1035.84L258.605 1054.46Z" fill="#231F20"/>
<path d="M306.83 1035.63L301.606 1053.92H305.992C309.099 1053.92 311.344 1053.46 312.729 1052.52C314.125 1051.57 315.323 1049.83 316.324 1047.29H317.58L312.833 1063.98H311.437C311.845 1062.57 312.054 1061.37 312.054 1060.37C312.054 1059.4 311.856 1058.62 311.461 1058.03C311.065 1057.44 310.518 1057.01 309.832 1056.73C309.145 1056.44 307.703 1056.3 305.504 1056.3H300.931L296.336 1072.34C295.905 1073.62 295.684 1074.59 295.684 1075.26C295.684 1075.77 295.975 1076.23 296.545 1076.61C296.952 1076.89 297.941 1077.03 299.535 1077.03H303.758C308.18 1077.03 311.728 1076.25 314.392 1074.68C317.057 1073.11 319.442 1070.37 321.56 1066.49H322.816L318.418 1079.4H282.805L283.247 1078.15C285.027 1078.1 286.214 1077.94 286.831 1077.67C287.738 1077.26 288.401 1076.74 288.808 1076.1C289.425 1075.17 290.146 1073.21 290.984 1070.24L299.023 1042.3C299.663 1040.04 299.977 1038.32 299.977 1037.15C299.977 1036.27 299.675 1035.6 299.07 1035.11C298.477 1034.62 297.301 1034.38 295.545 1034.38H294.835L295.242 1033.12H328.47L325.608 1044.29H324.352C324.515 1043.24 324.584 1042.37 324.584 1041.66C324.584 1040.46 324.293 1039.45 323.7 1038.64C322.932 1037.59 321.804 1036.8 320.314 1036.25C319.221 1035.84 316.708 1035.63 312.764 1035.63H306.83Z" fill="#231F20"/>
<path d="M327.481 1080.45L331.251 1063.28H332.438C332.275 1064.94 332.193 1066.31 332.193 1067.41C332.193 1070.51 333.193 1073.05 335.183 1075.01C337.161 1076.96 339.756 1077.94 342.967 1077.94C345.934 1077.94 348.191 1077.02 349.738 1075.19C351.285 1073.37 352.053 1071.25 352.053 1068.86C352.053 1067.31 351.704 1065.91 350.995 1064.64C349.924 1062.75 347.073 1059.43 342.432 1054.68C340.186 1052.4 338.743 1050.71 338.103 1049.6C337.068 1047.76 336.556 1045.83 336.556 1043.8C336.556 1040.58 337.766 1037.81 340.175 1035.52C342.595 1033.23 345.689 1032.07 349.47 1032.07C350.739 1032.07 351.948 1032.2 353.089 1032.46C353.787 1032.59 355.078 1033.05 356.94 1033.83C358.266 1034.35 358.999 1034.65 359.127 1034.69C359.453 1034.76 359.802 1034.8 360.186 1034.8C360.849 1034.8 361.419 1034.62 361.896 1034.28C362.373 1033.94 362.931 1033.2 363.571 1032.07H364.828L361.268 1047.43H360.081C360.174 1046.07 360.221 1044.97 360.221 1044.12C360.221 1041.36 359.302 1039.11 357.486 1037.36C355.66 1035.6 353.263 1034.73 350.273 1034.73C347.911 1034.73 345.98 1035.43 344.502 1036.81C343.025 1038.19 342.281 1039.8 342.281 1041.61C342.281 1043.21 342.757 1044.72 343.7 1046.16C344.642 1047.62 346.818 1049.97 350.227 1053.23C353.624 1056.49 355.834 1059.04 356.835 1060.87C357.836 1062.71 358.336 1064.65 358.336 1066.72C358.336 1069.07 357.719 1071.34 356.474 1073.54C355.241 1075.74 353.461 1077.44 351.146 1078.64C348.831 1079.85 346.306 1080.45 343.56 1080.45C342.187 1080.45 340.919 1080.32 339.744 1080.08C338.557 1079.82 336.673 1079.22 334.089 1078.24C333.206 1077.9 332.461 1077.73 331.868 1077.73C330.529 1077.73 329.483 1078.64 328.738 1080.45H327.481Z" fill="#231F20"/>
<path d="M371.6 1033.12H407.143L403.385 1045.41H402.128C402.547 1043.62 402.757 1042.01 402.757 1040.61C402.757 1038.95 402.245 1037.71 401.233 1036.87C400.465 1036.23 398.487 1035.91 395.31 1035.91H391.552L382.28 1068.59C381.117 1072.28 380.535 1074.55 380.535 1075.41C380.535 1076.22 380.907 1076.87 381.629 1077.38C382.35 1077.89 383.641 1078.15 385.48 1078.15H387.05L386.643 1079.4H366.771L367.155 1078.15H368.039C369.808 1078.15 371.169 1077.87 372.123 1077.3C372.786 1076.9 373.38 1076.2 373.915 1075.19C374.45 1074.18 375.195 1072.04 376.149 1068.77L385.619 1035.91H382.967C380.197 1035.91 377.963 1036.25 376.265 1036.94C374.578 1037.61 373.205 1038.6 372.17 1039.89C371.122 1041.18 370.273 1043.02 369.61 1045.41H368.353L371.6 1033.12Z" fill="#231F20"/>
<path d="M431.423 1032.07L427.932 1070.57C427.746 1072.38 427.665 1073.55 427.665 1074.12C427.665 1075.03 427.828 1075.73 428.177 1076.2C428.607 1076.87 429.189 1077.36 429.922 1077.67C430.666 1077.98 431.911 1078.15 433.657 1078.15L433.284 1079.4H415.076L415.46 1078.15H416.24C417.717 1078.15 418.927 1077.83 419.858 1077.19C420.51 1076.76 421.022 1076.04 421.382 1075.04C421.638 1074.33 421.871 1072.68 422.103 1070.06L422.662 1064.19H409.457L404.78 1070.57C403.709 1072 403.035 1073.04 402.767 1073.66C402.499 1074.28 402.36 1074.87 402.36 1075.41C402.36 1076.15 402.651 1076.77 403.244 1077.3C403.837 1077.82 404.814 1078.1 406.176 1078.15L405.804 1079.4H392.121L392.505 1078.15C394.181 1078.08 395.658 1077.52 396.938 1076.46C398.218 1075.4 400.137 1073.14 402.674 1069.69L430.213 1032.07H431.423ZM424.663 1043.39L411.295 1061.67H422.906L424.663 1043.39Z" fill="#231F20"/>
<path d="M447.42 1033.12H466.919L466.547 1034.38C464.546 1034.42 463.115 1034.61 462.265 1034.95C461.416 1035.29 460.684 1035.88 460.09 1036.73C459.485 1037.58 458.857 1039.15 458.194 1041.45L453.098 1058.71C452.19 1061.77 451.655 1063.78 451.481 1064.74C451.213 1066.07 451.074 1067.3 451.074 1068.43C451.074 1070.95 452.132 1073.06 454.249 1074.78C456.367 1076.52 459.206 1077.38 462.766 1077.38C465.105 1077.38 467.164 1076.95 468.956 1076.1C470.736 1075.25 472.271 1074.06 473.54 1072.53C474.807 1070.99 475.971 1068.92 477.03 1066.29C478.077 1063.67 478.996 1061.02 479.787 1058.33L483.836 1044.19C484.848 1040.65 485.36 1038.36 485.36 1037.29C485.36 1036.53 485.023 1035.89 484.325 1035.36C483.626 1034.82 482.23 1034.49 480.113 1034.38L480.485 1033.12H495.156L494.784 1034.38C493.05 1034.38 491.806 1034.54 491.049 1034.88C490.281 1035.22 489.618 1035.81 489.06 1036.68C488.49 1037.54 487.85 1039.22 487.14 1041.72L481.951 1059.69C480.276 1065.53 478.775 1069.65 477.46 1072.04C476.145 1074.42 474.109 1076.43 471.376 1078.04C468.641 1079.65 465.244 1080.45 461.183 1080.45C456.518 1080.45 452.749 1079.14 449.887 1076.52C447.024 1073.89 445.594 1070.89 445.594 1067.5C445.594 1066.16 445.721 1064.73 445.966 1063.21C446.152 1062.21 446.606 1060.47 447.327 1058.02L451.992 1042.27C452.621 1040 452.947 1038.32 452.947 1037.25C452.947 1036.4 452.621 1035.75 451.969 1035.29C451.329 1034.82 449.7 1034.52 447.083 1034.38L447.42 1033.12Z" fill="#231F20"/>
<path d="M517.483 1079.4L510.119 1056.93C508.432 1056.95 506.698 1056.77 504.929 1056.41L500.707 1071.1C500.183 1072.75 499.927 1074.14 499.927 1075.28C499.927 1076.16 500.253 1076.84 500.904 1077.34C501.405 1077.72 502.777 1077.98 505 1078.15L504.697 1079.4H487.001L487.373 1078.15C489.06 1078.08 490.189 1077.9 490.782 1077.63C491.713 1077.25 492.4 1076.73 492.83 1076.06C493.551 1074.99 494.319 1073.11 495.11 1070.41L503.15 1042.44C503.696 1040.57 503.976 1039.12 503.976 1038.1C503.976 1037.05 503.545 1036.17 502.696 1035.44C501.835 1034.7 500.625 1034.35 499.031 1034.38L499.438 1033.12H514.528C519.589 1033.12 523.23 1034.08 525.453 1035.98C527.687 1037.89 528.804 1040.4 528.804 1043.52C528.804 1046.5 527.664 1049.22 525.372 1051.69C523.079 1054.16 519.938 1055.72 515.959 1056.38L520.403 1069.94C521.485 1073.27 522.579 1075.44 523.673 1076.44C524.766 1077.44 526.523 1078.01 528.955 1078.15L528.583 1079.4H517.483ZM505.488 1054.46C506.931 1054.66 508.211 1054.76 509.339 1054.76C513.213 1054.76 516.273 1053.68 518.519 1051.5C520.764 1049.33 521.893 1046.62 521.893 1043.38C521.893 1040.86 521.183 1038.93 519.776 1037.58C518.356 1036.24 516.238 1035.56 513.423 1035.56C512.69 1035.56 511.841 1035.66 510.84 1035.84L505.488 1054.46Z" fill="#231F20"/>
<path d="M567.116 1032.07L563.626 1070.57C563.439 1072.38 563.358 1073.55 563.358 1074.12C563.358 1075.03 563.521 1075.73 563.87 1076.2C564.3 1076.87 564.882 1077.36 565.615 1077.67C566.36 1077.98 567.604 1078.15 569.35 1078.15L568.978 1079.4H550.769L551.153 1078.15H551.933C553.411 1078.15 554.62 1077.83 555.551 1077.19C556.203 1076.76 556.715 1076.04 557.076 1075.04C557.332 1074.33 557.564 1072.68 557.797 1070.06L558.355 1064.19H545.15L540.473 1070.57C539.403 1072 538.728 1073.04 538.46 1073.66C538.193 1074.28 538.053 1074.87 538.053 1075.41C538.053 1076.15 538.344 1076.77 538.937 1077.3C539.531 1077.82 540.508 1078.1 541.869 1078.15L541.497 1079.4H527.814L528.198 1078.15C529.874 1078.08 531.352 1077.52 532.631 1076.46C533.911 1075.4 535.831 1073.14 538.367 1069.69L565.906 1032.07H567.116ZM560.356 1043.39L546.988 1061.67H558.599L560.356 1043.39Z" fill="#231F20"/>
<path d="M593.945 1033.12L608.012 1069.01L615.713 1042.3C616.353 1040.07 616.668 1038.33 616.668 1037.11C616.668 1036.26 616.376 1035.61 615.783 1035.13C615.19 1034.65 614.096 1034.41 612.479 1034.41C612.211 1034.41 611.921 1034.4 611.63 1034.38L612.002 1033.12H626.859L626.452 1034.38C624.905 1034.35 623.765 1034.52 623.008 1034.85C621.949 1035.33 621.147 1035.95 620.623 1036.69C619.902 1037.76 619.157 1039.64 618.413 1042.3L607.43 1080.45H606.476L591.2 1041.46L582.904 1070.27C582.288 1072.45 581.985 1074.12 581.985 1075.28C581.985 1076.15 582.264 1076.8 582.811 1077.24C583.37 1077.68 584.696 1077.98 586.79 1078.15L586.441 1079.4H571.805L572.282 1078.15C574.097 1078.1 575.319 1077.96 575.923 1077.72C576.854 1077.34 577.553 1076.86 578.006 1076.26C578.669 1075.35 579.402 1073.6 580.229 1071L589.675 1038.17C588.791 1036.76 587.849 1035.8 586.837 1035.27C585.825 1034.75 584.254 1034.45 582.113 1034.38L582.486 1033.12H593.945Z" fill="#231F20"/>
<path d="M630.14 1033.12H665.683L661.925 1045.41H660.668C661.088 1043.62 661.297 1042.01 661.297 1040.61C661.297 1038.95 660.785 1037.71 659.773 1036.87C659.005 1036.23 657.027 1035.91 653.851 1035.91H650.093L640.82 1068.59C639.657 1072.28 639.075 1074.55 639.075 1075.41C639.075 1076.22 639.447 1076.87 640.169 1077.38C640.89 1077.89 642.181 1078.15 644.02 1078.15H645.59L645.183 1079.4H625.312L625.695 1078.15H626.579C628.348 1078.15 629.709 1077.87 630.663 1077.3C631.326 1076.9 631.92 1076.2 632.455 1075.19C632.99 1074.18 633.735 1072.04 634.689 1068.77L644.159 1035.91H641.507C638.737 1035.91 636.504 1036.25 634.805 1036.94C633.118 1037.61 631.745 1038.6 630.71 1039.89C629.662 1041.18 628.813 1043.02 628.15 1045.41H626.893L630.14 1033.12Z" fill="#231F20"/>
<path d="M190.354 888.417H724.824" stroke="#231F20" stroke-width="5.03929" stroke-miterlimit="22.9256"/>
</svg>
