<svg width="647" height="988" viewBox="0 0 647 988" fill="none" xmlns="http://www.w3.org/2000/svg">
<path fill-rule="evenodd" clip-rule="evenodd" d="M323.355 194.734C362.905 194.734 394.965 226.794 394.965 266.344C394.965 305.893 362.905 337.954 323.355 337.954C283.806 337.954 251.745 305.893 251.745 266.344C251.745 226.794 283.806 194.734 323.355 194.734Z" fill="#EC008C"/>
<path fill-rule="evenodd" clip-rule="evenodd" d="M323.355 2.60597e-05C362.905 2.60597e-05 394.965 32.0605 394.965 71.6101C394.965 111.16 362.905 143.22 323.355 143.22C283.806 143.22 251.745 111.16 251.745 71.6101C251.745 32.0605 283.806 2.60597e-05 323.355 2.60597e-05Z" fill="#FAB10B"/>
<path fill-rule="evenodd" clip-rule="evenodd" d="M554.016 133.172C573.79 167.423 562.055 211.218 527.805 230.993C493.554 250.768 449.758 239.033 429.984 204.782C410.209 170.531 421.944 126.736 456.195 106.961C490.446 87.1862 534.241 98.9215 554.016 133.172Z" fill="#EF3120"/>
<path fill-rule="evenodd" clip-rule="evenodd" d="M554.016 399.516C534.241 433.766 490.446 445.501 456.195 425.727C421.944 405.952 410.209 362.157 429.984 327.906C449.758 293.655 493.554 281.92 527.805 301.695C562.055 321.47 573.79 365.265 554.016 399.516Z" fill="#E07A10"/>
<path fill-rule="evenodd" clip-rule="evenodd" d="M323.355 532.687C283.806 532.687 251.745 500.627 251.745 461.077C251.745 421.528 283.806 389.468 323.355 389.468C362.905 389.468 394.965 421.528 394.965 461.077C394.965 500.627 362.905 532.687 323.355 532.687Z" fill="#FAB10B"/>
<path fill-rule="evenodd" clip-rule="evenodd" d="M92.6948 399.516C72.9202 365.265 84.655 321.47 118.906 301.695C153.157 281.92 196.952 293.655 216.727 327.906C236.501 362.157 224.767 405.952 190.516 425.727C156.265 445.501 112.47 433.766 92.6948 399.516Z" fill="#EF3120"/>
<path fill-rule="evenodd" clip-rule="evenodd" d="M92.6948 133.172C112.47 98.9215 156.265 87.1862 190.516 106.961C224.767 126.736 236.502 170.531 216.727 204.782C196.952 239.033 153.157 250.768 118.906 230.993C84.655 211.218 72.9203 167.423 92.6948 133.172Z" fill="#E07A10"/>
<path fill-rule="evenodd" clip-rule="evenodd" d="M43.1284 641.529C50.832 636.643 59.094 634.217 67.987 634.217C76.4869 634.217 83.1223 636.6 87.8871 641.328C92.6905 646.053 95.0733 652.688 95.0733 661.146H110.285C108.261 655.942 106.313 652.092 104.369 649.589C103.296 648.2 100.196 645.099 95.0733 640.334V607.768H76.4869V627.031C70.1339 622.465 61.4766 620.161 50.5172 620.161C33.9164 620.161 19.8167 628.382 8.25849 644.823C2.73938 652.646 0 659.674 0 665.911C0 674.131 3.136 682.429 9.40995 690.851C15.6855 699.272 23.6713 706.139 33.3586 711.502C43.525 717.185 53.6137 720.002 63.6199 720.002C68.7424 720.002 74.3044 718.73 80.2621 716.148C93.6073 710.428 101.309 703.362 103.417 694.983H78.6352C72.954 702.923 62.9854 706.897 48.6093 706.897C39.9899 706.897 33.0814 704.95 27.7966 701.096C21.8013 696.768 18.822 690.454 18.822 682.154C18.822 675.123 20.9682 667.855 25.2578 660.35C29.7831 652.448 35.7437 646.174 43.1284 641.529Z" fill="#231F20"/>
<path fill-rule="evenodd" clip-rule="evenodd" d="M265.365 623.364V637.753C265.286 637.831 265.086 638.071 264.773 638.468C262.864 640.175 261.393 641.444 260.404 642.281V650.897C264.808 649.353 269.338 647.562 273.985 645.618C284.35 641.289 295.786 638.984 308.256 638.747C313.819 638.588 318.228 639.262 321.444 640.733C324.658 642.203 327.954 645.099 331.371 649.468V660.191C324.618 655.107 315.724 652.569 304.642 652.569C286.375 652.569 271.046 658.724 258.734 671.076C252.379 677.428 249.201 683.823 249.201 690.253C249.201 695.973 251.23 701.177 255.276 705.822C263.578 715.434 275.336 720.238 290.621 720.238C301.704 720.238 311.434 718.252 319.814 714.281C322.473 713.051 325.851 711.224 329.943 708.84C330.974 709.516 331.451 711.104 331.451 713.607C342.171 718.053 348.33 720.556 349.958 721.191V676.397C349.958 656.615 348.289 643.473 344.953 636.961C339.989 627.19 328.792 622.304 311.355 622.304C307.145 622.304 302.935 622.701 298.645 623.455C288.788 625.218 283.149 626.373 281.705 626.922C280.705 627.184 280.626 627.303 280.615 626.356V623.364V607.756H265.365V623.364ZM319.179 672.145C327.32 674.888 331.371 677.943 331.371 681.36C331.371 684.696 326.166 689.5 315.802 695.815C303.889 703.044 290.702 706.657 276.288 706.657C265.128 706.657 258.734 703.839 257.148 698.158C257.148 695.099 259.092 691.25 263.066 686.483C272.873 674.69 285.976 668.771 302.339 668.771C306.827 668.771 312.425 669.88 319.179 672.145Z" fill="#231F20"/>
<path fill-rule="evenodd" clip-rule="evenodd" d="M456.27 658.8C456.27 672.621 452.815 683.625 445.906 691.845C441.019 697.68 435.067 704.038 428.117 710.945L450.593 725.003C465.485 708.803 472.953 691.884 472.953 674.293C472.953 660.272 468.702 648.2 460.163 638.114C451.071 627.429 439.633 622.067 425.811 622.067C415.645 622.067 405.954 625.522 396.82 632.395L386.456 640.175V622.084H366.438V713.805L385.501 723.813V689.977C385.501 676.318 389.393 663.45 397.138 651.336C405.917 637.716 416.793 630.881 429.863 630.881C447.457 630.881 456.27 640.175 456.27 658.8Z" fill="#231F20"/>
<path fill-rule="evenodd" clip-rule="evenodd" d="M499.006 639.543C490.783 649.468 486.652 658.166 486.573 665.712C486.495 673.894 489.475 682.352 495.509 691.049C500.631 698.399 507.066 704.829 514.811 710.35C523.865 716.785 532.247 720.002 539.908 720.002C552.022 720.002 564.334 711.9 576.881 695.697V712.334L598.091 721.431V623.364V607.768L598.262 580.001L576.881 568.37V607.768V653.559C566.438 642.163 559.924 635.449 557.342 633.346C549.005 626.315 540.663 622.779 532.363 622.779C519.336 622.779 508.219 628.382 499.006 639.543ZM175.258 624.963C168.026 627.628 160.208 633.543 151.744 642.759V623.364V607.768V580.001L129.346 568.37V607.768V709.559L151.031 721.191V675.003C151.031 668.97 153.495 662.693 158.381 656.182C162.867 650.143 168.543 644.944 175.374 640.575C182.999 635.688 190.112 633.186 196.82 633.028C204.011 632.871 209.608 635.729 213.58 641.644C217.077 646.686 218.785 652.965 218.704 660.47C218.623 673.139 215.129 683.583 208.222 691.884C202.063 699.272 196.584 705.468 191.776 710.51L210.841 721.906C212.786 720.436 215.761 717.738 219.697 713.886C231.572 702.248 237.528 689.222 237.528 674.766C237.528 666.866 235.464 658.842 231.374 650.699C221.959 632.075 207.823 622.779 188.88 622.779C183.837 622.779 179.307 623.497 175.258 624.963ZM502.779 679.256C502.779 666.388 510.402 655.228 525.612 645.735C532.604 641.407 538.442 639.225 543.087 639.225C549.48 639.225 555.597 641.169 561.513 645.062C568.106 649.39 571.404 654.596 571.404 660.628C571.404 665.992 568.504 672.621 562.663 680.564C557.941 686.997 552.818 692.401 547.297 696.848C539.352 703.202 531.886 706.381 524.898 706.381C518.149 706.381 512.666 703.478 508.494 697.642C504.683 692.438 502.779 686.323 502.779 679.256Z" fill="#231F20"/>
<path fill-rule="evenodd" clip-rule="evenodd" d="M625.053 622.025V711.82L644.593 722.62V622.025H625.053Z" fill="#231F20"/>
<path fill-rule="evenodd" clip-rule="evenodd" d="M634.823 581.357C641.389 581.357 646.712 586.68 646.712 593.246C646.712 599.813 641.389 605.136 634.823 605.136C628.257 605.136 622.934 599.813 622.934 593.246C622.934 586.68 628.257 581.357 634.823 581.357Z" fill="#BDBBBC"/>
<path fill-rule="evenodd" clip-rule="evenodd" d="M634.823 605.135C628.257 605.135 622.934 599.812 622.934 593.245C622.934 586.679 628.257 581.356 634.823 581.356C641.389 581.356 646.712 586.679 646.712 593.245C646.712 599.812 641.389 605.135 634.823 605.135Z" fill="#231F20"/>
<path d="M127.179 900.806L126.807 902.062H108.029L108.506 900.806C110.414 900.759 111.682 900.596 112.287 900.328C113.288 899.944 114.033 899.409 114.509 898.723C115.254 897.652 116.034 895.744 116.825 892.998L124.853 865.064C125.539 862.737 125.876 860.98 125.876 859.805C125.876 859.212 125.725 858.712 125.434 858.304C125.143 857.886 124.689 857.572 124.085 857.362C123.491 857.141 122.316 857.037 120.559 857.037L120.967 855.78H138.616L138.244 857.037C136.789 857.013 135.708 857.188 134.998 857.56C133.974 858.06 133.194 858.77 132.671 859.689C132.136 860.62 131.449 862.668 130.6 865.832L122.572 893.696C121.851 896.035 121.49 897.524 121.49 898.164C121.49 898.688 121.63 899.118 121.909 899.491C122.2 899.851 122.653 900.131 123.27 900.328C123.899 900.526 125.201 900.678 127.179 900.806Z" fill="#231F20"/>
<path d="M148.854 871.207L144.41 886.646C148.935 880.329 152.414 876.187 154.822 874.197C157.242 872.208 159.558 871.207 161.791 871.207C163.001 871.207 164.002 871.615 164.793 872.441C165.585 873.266 165.969 874.348 165.969 875.663C165.969 877.013 165.608 878.816 164.863 881.073L160.186 895.29C159.651 896.931 159.383 897.932 159.383 898.292C159.383 898.595 159.465 898.851 159.628 899.06C159.779 899.258 159.953 899.363 160.14 899.363C160.372 899.363 160.675 899.223 161.012 898.944C162.082 898.013 163.246 896.57 164.514 894.616L165.573 895.256C163.56 898.234 161.663 900.34 159.86 901.561C158.615 902.411 157.487 902.83 156.498 902.83C155.695 902.83 155.055 902.574 154.578 902.073C154.101 901.573 153.868 900.898 153.868 900.049C153.868 898.967 154.31 897.094 155.195 894.441L159.721 880.771C160.291 879.061 160.581 877.734 160.581 876.792C160.581 876.338 160.419 875.965 160.105 875.686C159.779 875.396 159.383 875.256 158.918 875.256C158.22 875.256 157.394 875.524 156.44 876.07C154.613 877.094 152.705 878.769 150.738 881.12C148.761 883.47 146.678 886.46 144.48 890.113C143.316 892.033 142.351 894.139 141.583 896.431L139.965 902.062H134.857L141.036 880.631C141.757 878.107 142.118 876.582 142.118 876.07C142.118 875.57 141.92 875.14 141.524 874.779C141.129 874.407 140.64 874.22 140.058 874.22C139.791 874.22 139.314 874.267 138.651 874.348L137.371 874.558L137.057 873.302L148.854 871.207Z" fill="#231F20"/>
<path d="M208.492 853.197L196.509 894.29C195.857 896.512 195.543 897.978 195.543 898.676C195.543 898.874 195.601 899.06 195.729 899.235C195.857 899.421 195.997 899.502 196.136 899.502C196.334 899.502 196.567 899.374 196.846 899.118C197.369 898.618 198.231 897.28 199.452 895.093L200.616 895.814C199.278 898.036 197.928 899.758 196.567 900.992C195.206 902.213 193.926 902.83 192.739 902.83C192.111 902.83 191.564 902.562 191.087 902.016C190.622 901.48 190.389 900.701 190.389 899.712C190.389 898.42 190.726 896.698 191.413 894.535L192.716 890.241C189.074 895.337 185.77 898.862 182.78 900.817C180.721 902.155 178.755 902.83 176.87 902.83C174.961 902.83 173.309 902.062 171.89 900.538C170.471 899.002 169.761 896.919 169.761 894.29C169.761 890.904 170.936 887.298 173.275 883.459C175.613 879.631 178.708 876.501 182.559 874.104C185.584 872.173 188.376 871.207 190.912 871.207C192.239 871.207 193.39 871.452 194.345 871.952C195.31 872.452 196.264 873.278 197.195 874.442L200.429 863.203C200.802 861.911 201.092 860.876 201.325 860.108C201.593 859.2 201.732 858.456 201.732 857.863C201.732 857.385 201.558 856.99 201.22 856.676C200.744 856.292 200.127 856.094 199.382 856.094C198.859 856.094 197.998 856.175 196.788 856.338V855.082L208.492 853.197ZM195.334 877.734C195.334 876.28 194.868 875.105 193.938 874.22C193.007 873.325 191.82 872.882 190.389 872.882C187.224 872.882 183.92 875.256 180.488 879.991C177.056 884.726 175.345 889.264 175.345 893.592C175.345 895.302 175.788 896.605 176.66 897.501C177.533 898.397 178.592 898.851 179.813 898.851C182.57 898.851 185.851 896.291 189.644 891.16C193.437 886.041 195.334 881.562 195.334 877.734Z" fill="#231F20"/>
<path d="M218.905 857.525C219.859 857.525 220.673 857.851 221.337 858.514C222 859.177 222.326 859.992 222.326 860.946C222.326 861.876 221.988 862.679 221.313 863.354C220.639 864.029 219.836 864.366 218.905 864.366C217.974 864.366 217.171 864.029 216.497 863.354C215.822 862.679 215.485 861.876 215.485 860.946C215.485 859.992 215.81 859.177 216.473 858.514C217.137 857.851 217.951 857.525 218.905 857.525ZM220.394 871.068L213.228 895.244C212.75 896.873 212.506 897.85 212.506 898.176C212.506 898.525 212.611 898.804 212.797 899.025C212.995 899.235 213.228 899.351 213.495 899.351C213.798 899.351 214.17 899.176 214.6 898.828C215.764 897.827 216.939 896.372 218.125 894.488L219.324 895.279C217.846 897.618 216.113 899.56 214.123 901.108C212.657 902.259 211.25 902.83 209.9 902.83C209.016 902.83 208.283 902.551 207.724 902.004C207.166 901.457 206.875 900.77 206.875 899.944C206.875 899.095 207.189 897.687 207.794 895.709L212.541 880.282C213.274 877.792 213.635 876.233 213.635 875.605C213.635 875.105 213.46 874.698 213.111 874.384C212.75 874.058 212.273 873.906 211.657 873.906C211.156 873.906 210.132 874.034 208.562 874.279V872.953L220.394 871.068Z" fill="#231F20"/>
<path d="M257.123 871.696L250.561 894.825L249.77 897.908C249.689 898.211 249.642 898.467 249.642 898.665C249.642 898.99 249.724 899.27 249.875 899.514C250.003 899.688 250.166 899.782 250.364 899.782C250.573 899.782 250.841 899.619 251.178 899.304C251.806 898.7 252.644 897.362 253.679 895.29L254.843 896.116C253.516 898.397 252.155 900.096 250.759 901.189C249.363 902.283 248.072 902.83 246.885 902.83C246.059 902.83 245.419 902.585 244.965 902.097C244.512 901.62 244.291 900.91 244.291 899.991C244.291 898.886 244.547 897.42 245.047 895.617L245.803 893.033C242.534 896.908 239.52 899.619 236.775 901.166C234.808 902.272 232.865 902.83 230.969 902.83C229.154 902.83 227.572 902.155 226.257 900.806C224.931 899.456 224.268 897.594 224.268 895.221C224.268 891.672 225.443 887.926 227.793 883.982C230.131 880.038 233.121 876.885 236.728 874.512C239.555 872.639 242.231 871.696 244.732 871.696C246.234 871.696 247.478 872.033 248.479 872.697C249.468 873.36 250.224 874.465 250.747 876.001L251.841 872.534L257.123 871.696ZM244.57 873.371C242.987 873.371 241.312 874.046 239.532 875.384C237.007 877.28 234.762 880.084 232.796 883.819C230.829 887.542 229.852 890.916 229.852 893.929C229.852 895.442 230.294 896.652 231.167 897.524C232.039 898.409 233.04 898.851 234.168 898.851C236.972 898.851 240.021 897.059 243.302 893.464C247.316 888.682 249.258 883.784 249.13 878.758C249.13 876.861 248.723 875.489 247.909 874.64C247.094 873.79 245.978 873.371 244.57 873.371Z" fill="#231F20"/>
<path d="M272.958 871.207L268.514 886.646C273.04 880.329 276.519 876.187 278.927 874.197C281.347 872.208 283.662 871.207 285.896 871.207C287.106 871.207 288.107 871.615 288.898 872.441C289.689 873.266 290.073 874.348 290.073 875.663C290.073 877.013 289.712 878.816 288.967 881.073L284.29 895.29C283.755 896.931 283.487 897.932 283.487 898.292C283.487 898.595 283.569 898.851 283.732 899.06C283.883 899.258 284.057 899.363 284.244 899.363C284.477 899.363 284.779 899.223 285.116 898.944C286.187 898.013 287.35 896.57 288.619 894.616L289.677 895.256C287.665 898.234 285.768 900.34 283.965 901.561C282.719 902.411 281.591 902.83 280.602 902.83C279.8 902.83 279.16 902.574 278.682 902.073C278.206 901.573 277.973 900.898 277.973 900.049C277.973 898.967 278.415 897.094 279.299 894.441L283.825 880.771C284.395 879.061 284.686 877.734 284.686 876.792C284.686 876.338 284.523 875.965 284.209 875.686C283.883 875.396 283.487 875.256 283.022 875.256C282.324 875.256 281.498 875.524 280.544 876.07C278.717 877.094 276.809 878.769 274.843 881.12C272.866 883.47 270.783 886.46 268.584 890.113C267.42 892.033 266.455 894.139 265.687 896.431L264.07 902.062H258.962L265.14 880.631C265.861 878.107 266.222 876.582 266.222 876.07C266.222 875.57 266.024 875.14 265.628 874.779C265.233 874.407 264.745 874.22 264.162 874.22C263.895 874.22 263.418 874.267 262.755 874.348L261.475 874.558L261.161 873.302L272.958 871.207Z" fill="#231F20"/>
<path d="M330.793 884.61L329.397 889.147H311.736L313.132 884.61H330.793Z" fill="#231F20"/>
<path d="M367.582 900.806L367.209 902.062H348.432L348.908 900.806C350.816 900.759 352.085 900.596 352.69 900.328C353.69 899.944 354.435 899.409 354.912 898.723C355.657 897.652 356.436 895.744 357.227 892.998L365.255 865.064C365.941 862.737 366.279 860.98 366.279 859.805C366.279 859.212 366.127 858.712 365.837 858.304C365.546 857.886 365.092 857.572 364.487 857.362C363.893 857.141 362.719 857.037 360.961 857.037L361.369 855.78H379.018L378.646 857.037C377.192 857.013 376.11 857.188 375.4 857.56C374.376 858.06 373.597 858.77 373.073 859.689C372.538 860.62 371.852 862.668 371.002 865.832L362.975 893.696C362.253 896.035 361.892 897.524 361.892 898.164C361.892 898.688 362.032 899.118 362.311 899.491C362.602 899.851 363.056 900.131 363.673 900.328C364.301 900.526 365.604 900.678 367.582 900.806Z" fill="#231F20"/>
<path d="M392.735 862.761L389.967 871.975H394.667L394.108 874.139H389.315L383.137 894.267C382.346 896.547 381.95 898.025 381.95 898.7C381.95 899.06 382.032 899.34 382.194 899.526C382.358 899.723 382.544 899.816 382.765 899.816C383.277 899.816 383.952 899.444 384.778 898.7C385.266 898.246 386.36 896.85 388.035 894.499L389.164 895.36C387.186 898.35 385.324 900.433 383.556 901.608C382.358 902.423 381.148 902.83 379.914 902.83C378.972 902.83 378.204 902.527 377.599 901.911C376.994 901.294 376.691 900.503 376.691 899.537C376.691 898.316 377.075 896.431 377.843 893.906L383.824 874.139H378.623L378.96 872.801C381.462 872.115 383.579 871.103 385.324 869.753C387.07 868.415 389.036 866.076 391.235 862.761H392.735Z" fill="#231F20"/>
<path d="M427.719 871.696L421.157 894.825L420.366 897.908C420.284 898.211 420.238 898.467 420.238 898.665C420.238 898.99 420.32 899.27 420.471 899.514C420.599 899.688 420.762 899.782 420.96 899.782C421.169 899.782 421.436 899.619 421.774 899.304C422.402 898.7 423.24 897.362 424.275 895.29L425.439 896.116C424.112 898.397 422.751 900.096 421.355 901.189C419.959 902.283 418.667 902.83 417.481 902.83C416.655 902.83 416.015 902.585 415.561 902.097C415.107 901.62 414.886 900.91 414.886 899.991C414.886 898.886 415.142 897.42 415.643 895.617L416.399 893.033C413.129 896.908 410.116 899.619 407.37 901.166C405.404 902.272 403.461 902.83 401.565 902.83C399.75 902.83 398.168 902.155 396.853 900.806C395.526 899.456 394.863 897.594 394.863 895.221C394.863 891.672 396.038 887.926 398.388 883.982C400.727 880.038 403.717 876.885 407.324 874.512C410.151 872.639 412.827 871.696 415.328 871.696C416.829 871.696 418.074 872.033 419.074 872.697C420.064 873.36 420.82 874.465 421.343 876.001L422.437 872.534L427.719 871.696ZM415.165 873.371C413.583 873.371 411.908 874.046 410.127 875.384C407.603 877.28 405.358 880.084 403.391 883.819C401.425 887.542 400.448 890.916 400.448 893.929C400.448 895.442 400.89 896.652 401.763 897.524C402.635 898.409 403.636 898.851 404.764 898.851C407.568 898.851 410.616 897.059 413.897 893.464C417.911 888.682 419.854 883.784 419.726 878.758C419.726 876.861 419.319 875.489 418.505 874.64C417.69 873.79 416.573 873.371 415.165 873.371Z" fill="#231F20"/>
<path d="M449.336 853.546L437.318 894.302C436.724 896.338 436.433 897.582 436.433 898.036C436.433 898.374 436.538 898.665 436.724 898.886C436.922 899.118 437.166 899.235 437.446 899.235C437.842 899.235 438.26 899.037 438.714 898.653C439.773 897.699 440.901 896.198 442.064 894.151L443.112 895.209C441.053 898.234 439.156 900.34 437.422 901.538C436.143 902.4 434.921 902.83 433.769 902.83C432.943 902.83 432.257 902.539 431.71 901.957C431.151 901.376 430.872 900.712 430.872 899.944C430.872 899.13 431.256 897.431 432.012 894.883L441.588 862.761C442.344 860.178 442.716 858.689 442.716 858.305C442.716 857.769 442.495 857.327 442.064 856.978C441.634 856.618 440.959 856.443 440.029 856.443C439.505 856.443 438.691 856.525 437.609 856.687V855.431L449.336 853.546Z" fill="#231F20"/>
<path d="M463.193 857.525C464.147 857.525 464.961 857.851 465.625 858.514C466.288 859.177 466.614 859.992 466.614 860.946C466.614 861.876 466.276 862.679 465.601 863.354C464.927 864.029 464.124 864.366 463.193 864.366C462.262 864.366 461.459 864.029 460.785 863.354C460.11 862.679 459.773 861.876 459.773 860.946C459.773 859.992 460.098 859.177 460.761 858.514C461.425 857.851 462.239 857.525 463.193 857.525ZM464.682 871.068L457.516 895.244C457.038 896.873 456.794 897.85 456.794 898.176C456.794 898.525 456.899 898.804 457.085 899.025C457.283 899.235 457.516 899.351 457.783 899.351C458.086 899.351 458.458 899.176 458.888 898.828C460.052 897.827 461.227 896.372 462.413 894.488L463.612 895.279C462.134 897.618 460.401 899.56 458.411 901.108C456.945 902.259 455.538 902.83 454.188 902.83C453.304 902.83 452.571 902.551 452.012 902.004C451.454 901.457 451.163 900.77 451.163 899.944C451.163 899.095 451.477 897.687 452.082 895.709L456.829 880.282C457.562 877.792 457.923 876.233 457.923 875.605C457.923 875.105 457.748 874.698 457.399 874.384C457.038 874.058 456.561 873.906 455.945 873.906C455.444 873.906 454.42 874.034 452.85 874.279V872.953L464.682 871.068Z" fill="#231F20"/>
<path d="M501.412 871.696L494.851 894.825L494.059 897.908C493.978 898.211 493.931 898.467 493.931 898.665C493.931 898.99 494.013 899.27 494.164 899.514C494.292 899.688 494.455 899.782 494.653 899.782C494.862 899.782 495.13 899.619 495.467 899.304C496.095 898.7 496.933 897.362 497.968 895.29L499.132 896.116C497.806 898.397 496.444 900.096 495.049 901.189C493.652 902.283 492.361 902.83 491.174 902.83C490.348 902.83 489.708 902.585 489.254 902.097C488.801 901.62 488.58 900.91 488.58 899.991C488.58 898.886 488.836 897.42 489.336 895.617L490.092 893.033C486.823 896.908 483.809 899.619 481.064 901.166C479.097 902.272 477.154 902.83 475.258 902.83C473.443 902.83 471.861 902.155 470.546 900.806C469.22 899.456 468.557 897.594 468.557 895.221C468.557 891.672 469.732 887.926 472.082 883.982C474.42 880.038 477.41 876.885 481.017 874.512C483.844 872.639 486.52 871.696 489.022 871.696C490.523 871.696 491.768 872.033 492.768 872.697C493.757 873.36 494.513 874.465 495.036 876.001L496.131 872.534L501.412 871.696ZM488.859 873.371C487.276 873.371 485.601 874.046 483.821 875.384C481.296 877.28 479.051 880.084 477.085 883.819C475.118 887.542 474.141 890.916 474.141 893.929C474.141 895.442 474.583 896.652 475.456 897.524C476.328 898.409 477.329 898.851 478.457 898.851C481.261 898.851 484.31 897.059 487.591 893.464C491.605 888.682 493.547 883.784 493.419 878.758C493.419 876.861 493.012 875.489 492.198 874.64C491.383 873.79 490.267 873.371 488.859 873.371Z" fill="#231F20"/>
<path d="M517.246 871.207L512.802 886.646C517.328 880.329 520.807 876.187 523.215 874.197C525.635 872.208 527.95 871.207 530.184 871.207C531.394 871.207 532.395 871.615 533.186 872.441C533.977 873.266 534.361 874.348 534.361 875.663C534.361 877.013 534 878.816 533.255 881.073L528.578 895.29C528.043 896.931 527.775 897.932 527.775 898.292C527.775 898.595 527.857 898.851 528.02 899.06C528.171 899.258 528.345 899.363 528.532 899.363C528.765 899.363 529.067 899.223 529.404 898.944C530.475 898.013 531.638 896.57 532.907 894.616L533.965 895.256C531.953 898.234 530.056 900.34 528.253 901.561C527.007 902.411 525.879 902.83 524.891 902.83C524.088 902.83 523.448 902.574 522.971 902.073C522.494 901.573 522.261 900.898 522.261 900.049C522.261 898.967 522.703 897.094 523.587 894.441L528.113 880.771C528.683 879.061 528.974 877.734 528.974 876.792C528.974 876.338 528.811 875.965 528.497 875.686C528.171 875.396 527.776 875.256 527.31 875.256C526.612 875.256 525.786 875.524 524.832 876.07C523.005 877.094 521.097 878.769 519.131 881.12C517.154 883.47 515.071 886.46 512.872 890.113C511.708 892.033 510.743 894.139 509.975 896.431L508.358 902.062H503.25L509.428 880.631C510.149 878.107 510.51 876.582 510.51 876.07C510.51 875.57 510.312 875.14 509.917 874.779C509.521 874.407 509.033 874.22 508.451 874.22C508.183 874.22 507.706 874.267 507.043 874.348L505.763 874.558L505.449 873.302L517.246 871.207Z" fill="#231F20"/>
<path d="M143.6 986.403L136.236 963.926C134.549 963.949 132.815 963.774 131.047 963.414L126.824 978.096C126.3 979.748 126.044 981.145 126.044 982.285C126.044 983.157 126.37 983.844 127.021 984.344C127.522 984.716 128.894 984.984 131.117 985.147L130.814 986.403H113.118L113.49 985.147C115.177 985.077 116.306 984.903 116.899 984.635C117.83 984.251 118.517 983.727 118.947 983.064C119.668 981.994 120.436 980.109 121.227 977.41L129.267 949.44C129.813 947.567 130.093 946.125 130.093 945.101C130.093 944.054 129.662 943.17 128.813 942.437C127.952 941.704 126.742 941.354 125.148 941.378L125.555 940.121H140.645C145.706 940.121 149.348 941.075 151.57 942.984C153.804 944.892 154.921 947.405 154.921 950.522C154.921 953.501 153.781 956.224 151.489 958.69C149.196 961.157 146.055 962.716 142.076 963.378L146.52 976.944C147.602 980.272 148.696 982.436 149.79 983.437C150.884 984.437 152.64 985.007 155.072 985.147L154.7 986.403H143.6ZM131.605 961.459C133.048 961.657 134.328 961.761 135.456 961.761C139.33 961.761 142.39 960.679 144.636 958.504C146.881 956.328 148.01 953.617 148.01 950.383C148.01 947.858 147.3 945.927 145.893 944.578C144.473 943.24 142.355 942.565 139.54 942.565C138.807 942.565 137.958 942.658 136.957 942.844L131.605 961.459Z" fill="#231F20"/>
<path d="M179.83 942.634L174.606 960.924H178.992C182.099 960.924 184.344 960.459 185.729 959.516C187.125 958.573 188.323 956.828 189.324 954.292H190.58L185.833 970.976H184.437C184.845 969.568 185.054 968.37 185.054 967.369C185.054 966.403 184.856 965.624 184.461 965.031C184.065 964.437 183.518 964.007 182.832 963.728C182.145 963.437 180.703 963.297 178.504 963.297H173.931L169.336 979.341C168.905 980.621 168.684 981.587 168.684 982.261C168.684 982.773 168.975 983.227 169.545 983.611C169.952 983.89 170.941 984.03 172.535 984.03H176.758C181.18 984.03 184.728 983.25 187.392 981.68C190.057 980.109 192.442 977.375 194.56 973.489H195.816L191.418 986.403H155.805L156.247 985.147C158.027 985.1 159.214 984.937 159.831 984.67C160.738 984.263 161.401 983.739 161.808 983.099C162.425 982.168 163.146 980.214 163.984 977.235L172.023 949.301C172.663 947.044 172.977 945.322 172.977 944.147C172.977 943.274 172.675 942.6 172.07 942.111C171.477 941.622 170.301 941.378 168.545 941.378H167.835L168.242 940.121H201.47L198.608 951.29H197.352C197.515 950.243 197.584 949.371 197.584 948.661C197.584 947.463 197.293 946.451 196.7 945.636C195.932 944.589 194.804 943.798 193.314 943.251C192.221 942.844 189.708 942.634 185.764 942.634H179.83Z" fill="#231F20"/>
<path d="M200.481 987.45L204.251 970.278H205.438C205.275 971.942 205.193 973.315 205.193 974.408C205.193 977.514 206.193 980.051 208.183 982.005C210.161 983.96 212.756 984.937 215.967 984.937C218.934 984.937 221.191 984.018 222.738 982.191C224.285 980.365 225.053 978.248 225.053 975.862C225.053 974.315 224.704 972.907 223.995 971.639C222.924 969.754 220.073 966.427 215.432 961.68C213.186 959.4 211.743 957.713 211.103 956.596C210.068 954.758 209.556 952.826 209.556 950.802C209.556 947.579 210.766 944.81 213.175 942.518C215.595 940.226 218.689 939.074 222.47 939.074C223.739 939.074 224.948 939.202 226.089 939.458C226.787 939.586 228.078 940.052 229.94 940.831C231.266 941.354 231.999 941.646 232.127 941.692C232.453 941.762 232.802 941.797 233.186 941.797C233.849 941.797 234.419 941.622 234.896 941.285C235.373 940.936 235.931 940.203 236.571 939.074H237.828L234.268 954.432H233.081C233.174 953.07 233.221 951.965 233.221 951.116C233.221 948.359 232.302 946.113 230.486 944.356C228.66 942.6 226.263 941.727 223.273 941.727C220.911 941.727 218.98 942.425 217.502 943.81C216.025 945.194 215.281 946.799 215.281 948.615C215.281 950.208 215.757 951.721 216.7 953.164C217.642 954.618 219.818 956.968 223.227 960.226C226.624 963.495 228.834 966.043 229.835 967.869C230.836 969.708 231.336 971.651 231.336 973.722C231.336 976.072 230.719 978.341 229.474 980.54C228.241 982.739 226.461 984.437 224.146 985.635C221.831 986.845 219.306 987.45 216.56 987.45C215.187 987.45 213.919 987.322 212.744 987.078C211.557 986.822 209.673 986.217 207.089 985.24C206.206 984.903 205.461 984.728 204.868 984.728C203.529 984.728 202.483 985.635 201.738 987.45H200.481Z" fill="#231F20"/>
<path d="M244.6 940.121H280.143L276.385 952.407H275.128C275.547 950.616 275.757 949.01 275.757 947.614C275.757 945.95 275.245 944.706 274.233 943.868C273.465 943.228 271.487 942.914 268.31 942.914H264.552L255.28 975.595C254.117 979.283 253.535 981.552 253.535 982.413C253.535 983.215 253.907 983.867 254.629 984.379C255.35 984.891 256.641 985.147 258.48 985.147H260.05L259.643 986.403H239.771L240.155 985.147H241.039C242.808 985.147 244.169 984.867 245.123 984.297C245.786 983.902 246.38 983.204 246.915 982.191C247.45 981.179 248.195 979.039 249.149 975.769L258.619 942.914H255.967C253.197 942.914 250.963 943.251 249.265 943.938C247.578 944.612 246.205 945.601 245.17 946.893C244.122 948.184 243.273 950.022 242.61 952.407H241.353L244.6 940.121Z" fill="#231F20"/>
<path d="M304.423 939.074L300.932 977.573C300.746 979.376 300.665 980.551 300.665 981.121C300.665 982.029 300.828 982.727 301.177 983.204C301.607 983.867 302.189 984.356 302.922 984.67C303.666 984.984 304.911 985.147 306.657 985.147L306.284 986.403H288.076L288.46 985.147H289.24C290.717 985.147 291.927 984.832 292.858 984.192C293.51 983.762 294.022 983.041 294.382 982.04C294.638 981.331 294.871 979.679 295.103 977.061L295.662 971.185H282.457L277.78 977.573C276.709 979.004 276.035 980.039 275.767 980.656C275.499 981.284 275.36 981.866 275.36 982.413C275.36 983.146 275.651 983.774 276.244 984.297C276.837 984.821 277.814 985.1 279.176 985.147L278.804 986.403H265.121L265.505 985.147C267.181 985.077 268.658 984.519 269.938 983.46C271.218 982.401 273.137 980.144 275.674 976.688L303.213 939.074H304.423ZM297.663 950.394L284.295 968.672H295.906L297.663 950.394Z" fill="#231F20"/>
<path d="M320.42 940.121H339.919L339.547 941.378C337.546 941.424 336.115 941.61 335.265 941.948C334.416 942.285 333.684 942.879 333.09 943.728C332.485 944.578 331.857 946.148 331.194 948.452L326.098 965.706C325.19 968.765 324.655 970.778 324.481 971.744C324.213 973.07 324.074 974.303 324.074 975.432C324.074 977.945 325.132 980.062 327.249 981.784C329.367 983.518 332.206 984.379 335.766 984.379C338.105 984.379 340.164 983.949 341.956 983.099C343.736 982.25 345.271 981.063 346.54 979.527C347.807 977.992 348.971 975.92 350.03 973.291C351.077 970.673 351.996 968.021 352.787 965.333L356.836 951.186C357.848 947.649 358.36 945.357 358.36 944.286C358.36 943.53 358.023 942.89 357.325 942.355C356.626 941.82 355.23 941.494 353.113 941.378L353.485 940.121H368.156L367.784 941.378C366.05 941.378 364.806 941.541 364.049 941.878C363.281 942.216 362.618 942.809 362.06 943.682C361.49 944.542 360.85 946.218 360.14 948.719L354.951 966.694C353.276 972.535 351.775 976.654 350.46 979.039C349.145 981.424 347.109 983.425 344.376 985.042C341.641 986.648 338.244 987.45 334.183 987.45C329.518 987.45 325.749 986.136 322.887 983.518C320.024 980.889 318.594 977.887 318.594 974.501C318.594 973.163 318.721 971.732 318.966 970.208C319.152 969.207 319.606 967.474 320.327 965.019L324.992 949.266C325.621 946.997 325.947 945.322 325.947 944.252C325.947 943.402 325.621 942.751 324.969 942.285C324.329 941.82 322.7 941.518 320.083 941.378L320.42 940.121Z" fill="#231F20"/>
<path d="M390.483 986.403L383.119 963.926C381.432 963.949 379.698 963.774 377.929 963.414L373.707 978.096C373.183 979.748 372.927 981.145 372.927 982.285C372.927 983.157 373.253 983.844 373.904 984.344C374.405 984.716 375.777 984.984 378 985.147L377.697 986.403H360.001L360.373 985.147C362.06 985.077 363.189 984.903 363.782 984.635C364.713 984.251 365.4 983.727 365.83 983.064C366.551 981.994 367.319 980.109 368.11 977.41L376.15 949.44C376.696 947.567 376.976 946.125 376.976 945.101C376.976 944.054 376.545 943.17 375.696 942.437C374.835 941.704 373.625 941.354 372.031 941.378L372.438 940.121H387.528C392.589 940.121 396.23 941.075 398.453 942.984C400.687 944.892 401.804 947.405 401.804 950.522C401.804 953.501 400.664 956.224 398.372 958.69C396.079 961.157 392.938 962.716 388.959 963.378L393.403 976.944C394.485 980.272 395.579 982.436 396.673 983.437C397.766 984.437 399.523 985.007 401.955 985.147L401.583 986.403H390.483ZM378.488 961.459C379.931 961.657 381.211 961.761 382.339 961.761C386.213 961.761 389.273 960.679 391.519 958.504C393.764 956.328 394.893 953.617 394.893 950.383C394.893 947.858 394.183 945.927 392.776 944.578C391.356 943.24 389.238 942.565 386.423 942.565C385.69 942.565 384.841 942.658 383.84 942.844L378.488 961.459Z" fill="#231F20"/>
<path d="M440.116 939.074L436.626 977.573C436.439 979.376 436.358 980.551 436.358 981.121C436.358 982.029 436.521 982.727 436.87 983.204C437.3 983.867 437.882 984.356 438.615 984.67C439.36 984.984 440.604 985.147 442.35 985.147L441.978 986.403H423.769L424.153 985.147H424.933C426.411 985.147 427.62 984.832 428.551 984.192C429.203 983.762 429.715 983.041 430.076 982.04C430.332 981.331 430.564 979.679 430.797 977.061L431.355 971.185H418.15L413.473 977.573C412.403 979.004 411.728 980.039 411.46 980.656C411.193 981.284 411.053 981.866 411.053 982.413C411.053 983.146 411.344 983.774 411.937 984.297C412.531 984.821 413.508 985.1 414.869 985.147L414.497 986.403H400.814L401.198 985.147C402.874 985.077 404.352 984.519 405.631 983.46C406.911 982.401 408.831 980.144 411.367 976.688L438.906 939.074H440.116ZM433.356 950.394L419.988 968.672H431.599L433.356 950.394Z" fill="#231F20"/>
<path d="M466.945 940.121L481.012 976.014L488.713 949.301C489.353 947.067 489.668 945.333 489.668 944.112C489.668 943.263 489.376 942.611 488.783 942.134C488.19 941.646 487.096 941.413 485.479 941.413C485.211 941.413 484.921 941.4 484.63 941.378L485.002 940.121H499.859L499.452 941.378C497.905 941.354 496.765 941.518 496.008 941.855C494.949 942.332 494.147 942.948 493.623 943.693C492.902 944.764 492.157 946.637 491.413 949.301L480.43 987.45H479.476L464.2 948.463L455.904 977.27C455.288 979.446 454.985 981.121 454.985 982.285C454.985 983.146 455.264 983.797 455.811 984.239C456.37 984.681 457.696 984.984 459.79 985.147L459.441 986.403H444.805L445.282 985.147C447.097 985.1 448.319 984.96 448.923 984.716C449.854 984.344 450.553 983.855 451.006 983.262C451.669 982.355 452.402 980.598 453.229 978.003L462.675 945.171C461.791 943.763 460.849 942.797 459.837 942.274C458.825 941.75 457.254 941.448 455.113 941.378L455.486 940.121H466.945Z" fill="#231F20"/>
<path d="M503.14 940.121H538.683L534.925 952.407H533.668C534.088 950.616 534.297 949.01 534.297 947.614C534.297 945.95 533.785 944.706 532.773 943.868C532.005 943.228 530.027 942.914 526.851 942.914H523.093L513.82 975.595C512.657 979.283 512.075 981.552 512.075 982.413C512.075 983.215 512.447 983.867 513.169 984.379C513.89 984.891 515.181 985.147 517.02 985.147H518.59L518.183 986.403H498.312L498.695 985.147H499.579C501.348 985.147 502.709 984.867 503.663 984.297C504.326 983.902 504.92 983.204 505.455 982.191C505.99 981.179 506.735 979.039 507.689 975.769L517.159 942.914H514.507C511.737 942.914 509.504 943.251 507.805 943.938C506.118 944.612 504.745 945.601 503.71 946.893C502.662 948.184 501.813 950.022 501.15 952.407H499.893L503.14 940.121Z" fill="#231F20"/>
<path d="M63.3535 795.417H597.824" stroke="#231F20" stroke-width="5.03929" stroke-miterlimit="22.9256"/>
</svg>
