<svg width="900" height="1174" viewBox="0 0 900 1174" fill="none" xmlns="http://www.w3.org/2000/svg">
<rect width="900" height="1174" fill="#231F20"/>
<path fill-rule="evenodd" clip-rule="evenodd" d="M450.355 287.734C489.905 287.734 521.965 319.794 521.965 359.344C521.965 398.893 489.905 430.954 450.355 430.954C410.806 430.954 378.745 398.893 378.745 359.344C378.745 319.794 410.806 287.734 450.355 287.734Z" fill="#EC008C"/>
<path fill-rule="evenodd" clip-rule="evenodd" d="M450.355 93C489.905 93 521.965 125.061 521.965 164.61C521.965 204.16 489.905 236.22 450.355 236.22C410.806 236.22 378.745 204.16 378.745 164.61C378.745 125.061 410.806 93 450.355 93Z" fill="#FAB10B"/>
<path fill-rule="evenodd" clip-rule="evenodd" d="M681.016 226.172C700.79 260.423 689.055 304.218 654.805 323.993C620.554 343.768 576.758 332.033 556.984 297.782C537.209 263.531 548.944 219.736 583.195 199.961C617.446 180.186 661.241 191.922 681.016 226.172Z" fill="#EF3120"/>
<path fill-rule="evenodd" clip-rule="evenodd" d="M681.016 492.516C661.241 526.766 617.446 538.501 583.195 518.727C548.944 498.952 537.209 455.157 556.984 420.906C576.758 386.655 620.554 374.92 654.805 394.695C689.055 414.47 700.79 458.265 681.016 492.516Z" fill="#E07A10"/>
<path fill-rule="evenodd" clip-rule="evenodd" d="M450.355 625.687C410.806 625.687 378.745 593.627 378.745 554.077C378.745 514.528 410.806 482.468 450.355 482.468C489.905 482.468 521.965 514.528 521.965 554.077C521.965 593.627 489.905 625.687 450.355 625.687Z" fill="#FAB10B"/>
<path fill-rule="evenodd" clip-rule="evenodd" d="M219.695 492.516C199.92 458.265 211.655 414.47 245.906 394.695C280.157 374.92 323.952 386.655 343.727 420.906C363.501 455.157 351.767 498.952 317.516 518.727C283.265 538.501 239.47 526.766 219.695 492.516Z" fill="#EF3120"/>
<path fill-rule="evenodd" clip-rule="evenodd" d="M219.695 226.172C239.47 191.922 283.265 180.186 317.516 199.961C351.767 219.736 363.502 263.531 343.727 297.782C323.952 332.033 280.157 343.768 245.906 323.993C211.655 304.218 199.92 260.423 219.695 226.172Z" fill="#E07A10"/>
<path fill-rule="evenodd" clip-rule="evenodd" d="M170.128 734.529C177.832 729.643 186.094 727.217 194.987 727.217C203.487 727.217 210.122 729.6 214.887 734.328C219.69 739.053 222.073 745.688 222.073 754.146H237.285C235.261 748.942 233.313 745.092 231.369 742.589C230.296 741.2 227.196 738.099 222.073 733.334V700.768H203.487V720.031C197.134 715.465 188.477 713.161 177.517 713.161C160.916 713.161 146.817 721.382 135.258 737.823C129.739 745.646 127 752.674 127 758.911C127 767.131 130.136 775.429 136.41 783.851C142.686 792.272 150.671 799.139 160.359 804.502C170.525 810.185 180.614 813.002 190.62 813.002C195.742 813.002 201.304 811.73 207.262 809.148C220.607 803.428 228.309 796.362 230.417 787.983H205.635C199.954 795.923 189.985 799.897 175.609 799.897C166.99 799.897 160.081 797.95 154.797 794.096C148.801 789.768 145.822 783.454 145.822 775.154C145.822 768.123 147.968 760.855 152.258 753.35C156.783 745.448 162.744 739.174 170.128 734.529Z" fill="white"/>
<path fill-rule="evenodd" clip-rule="evenodd" d="M392.365 716.364V730.753C392.286 730.831 392.086 731.071 391.773 731.468C389.864 733.175 388.393 734.444 387.404 735.281V743.897C391.808 742.353 396.338 740.562 400.985 738.618C411.35 734.289 422.786 731.984 435.256 731.747C440.819 731.588 445.228 732.262 448.444 733.733C451.658 735.203 454.954 738.099 458.371 742.468V753.191C451.618 748.107 442.724 745.569 431.642 745.569C413.375 745.569 398.046 751.724 385.734 764.076C379.379 770.428 376.201 776.823 376.201 783.253C376.201 788.973 378.23 794.177 382.276 798.822C390.578 808.434 402.336 813.238 417.621 813.238C428.704 813.238 438.434 811.252 446.814 807.281C449.473 806.051 452.851 804.224 456.943 801.84C457.974 802.516 458.451 804.104 458.451 806.607C469.171 811.053 475.33 813.556 476.958 814.191V769.397C476.958 749.615 475.289 736.473 471.953 729.961C466.989 720.19 455.792 715.304 438.355 715.304C434.145 715.304 429.935 715.701 425.645 716.455C415.788 718.218 410.149 719.373 408.705 719.922C407.705 720.184 407.626 720.303 407.615 719.356V716.364V700.756H392.365V716.364ZM446.179 765.145C454.32 767.888 458.371 770.943 458.371 774.36C458.371 777.696 453.166 782.5 442.802 788.815C430.889 796.044 417.702 799.657 403.288 799.657C392.128 799.657 385.734 796.839 384.148 791.158C384.148 788.099 386.092 784.25 390.066 779.483C399.873 767.69 412.976 761.771 429.339 761.771C433.827 761.771 439.425 762.88 446.179 765.145Z" fill="white"/>
<path fill-rule="evenodd" clip-rule="evenodd" d="M583.27 751.8C583.27 765.621 579.815 776.625 572.906 784.845C568.019 790.68 562.067 797.038 555.117 803.945L577.593 818.003C592.485 801.803 599.953 784.884 599.953 767.293C599.953 753.272 595.702 741.2 587.163 731.114C578.071 720.429 566.633 715.067 552.811 715.067C542.645 715.067 532.954 718.522 523.82 725.395L513.456 733.175V715.084H493.438V806.805L512.501 816.813V782.977C512.501 769.318 516.393 756.45 524.138 744.336C532.917 730.716 543.793 723.881 556.863 723.881C574.457 723.881 583.27 733.175 583.27 751.8Z" fill="white"/>
<path fill-rule="evenodd" clip-rule="evenodd" d="M626.006 732.543C617.783 742.468 613.652 751.166 613.573 758.712C613.495 766.894 616.475 775.352 622.509 784.049C627.631 791.399 634.066 797.829 641.811 803.35C650.865 809.785 659.247 813.002 666.908 813.002C679.022 813.002 691.334 804.9 703.881 788.697V805.334L725.091 814.431V716.364V700.768L725.262 673.001L703.881 661.37V700.768V746.559C693.438 735.163 686.924 728.449 684.342 726.346C676.005 719.315 667.663 715.779 659.363 715.779C646.336 715.779 635.219 721.382 626.006 732.543ZM302.258 717.963C295.026 720.628 287.208 726.543 278.744 735.759V716.364V700.768V673.001L256.346 661.37V700.768V802.559L278.031 814.191V768.003C278.031 761.97 280.495 755.693 285.381 749.182C289.867 743.143 295.543 737.944 302.374 733.575C309.999 728.688 317.112 726.186 323.82 726.028C331.011 725.871 336.608 728.729 340.58 734.644C344.077 739.686 345.785 745.965 345.704 753.47C345.623 766.139 342.129 776.583 335.222 784.884C329.063 792.272 323.584 798.468 318.776 803.51L337.841 814.906C339.786 813.436 342.761 810.738 346.697 806.886C358.572 795.248 364.528 782.222 364.528 767.766C364.528 759.866 362.464 751.842 358.374 743.699C348.959 725.075 334.823 715.779 315.88 715.779C310.837 715.779 306.307 716.497 302.258 717.963ZM629.779 772.256C629.779 759.388 637.402 748.228 652.612 738.735C659.604 734.407 665.442 732.225 670.087 732.225C676.48 732.225 682.597 734.169 688.513 738.062C695.106 742.39 698.404 747.596 698.404 753.628C698.404 758.992 695.504 765.621 689.663 773.564C684.941 779.997 679.818 785.401 674.297 789.848C666.352 796.202 658.886 799.381 651.898 799.381C645.149 799.381 639.666 796.478 635.494 790.642C631.683 785.438 629.779 779.323 629.779 772.256Z" fill="white"/>
<path fill-rule="evenodd" clip-rule="evenodd" d="M752.053 715.025V804.82L771.593 815.62V715.025H752.053Z" fill="white"/>
<path fill-rule="evenodd" clip-rule="evenodd" d="M761.823 674.357C768.389 674.357 773.712 679.68 773.712 686.246C773.712 692.813 768.389 698.136 761.823 698.136C755.257 698.136 749.934 692.813 749.934 686.246C749.934 679.68 755.257 674.357 761.823 674.357Z" fill="#BDBBBC"/>
<path fill-rule="evenodd" clip-rule="evenodd" d="M761.823 698.135C755.257 698.135 749.934 692.812 749.934 686.245C749.934 679.679 755.257 674.356 761.823 674.356C768.389 674.356 773.712 679.679 773.712 686.245C773.712 692.812 768.389 698.135 761.823 698.135Z" fill="white"/>
<path d="M261.597 949.767C261.663 949.732 261.73 949.7 261.8 949.669H251.747C252.319 949.923 252.81 950.289 253.161 950.793C253.572 951.371 253.765 952.057 253.765 952.805C253.765 954.113 253.397 955.97 252.706 958.313C252.706 958.314 252.705 958.315 252.705 958.316L244.679 986.244L244.679 986.245C243.884 989.003 243.073 991.032 242.239 992.23C241.638 993.096 240.734 993.722 239.625 994.151C239.608 994.158 239.59 994.166 239.572 994.173H249.993C249.276 993.942 248.651 993.586 248.217 993.049L248.207 993.037L248.198 993.024C247.794 992.484 247.601 991.863 247.601 991.164C247.601 990.727 247.716 990.103 247.897 989.358C248.083 988.59 248.358 987.617 248.721 986.442L256.744 958.594C257.585 955.458 258.297 953.297 258.899 952.248C259.517 951.164 260.433 950.337 261.597 949.767Z" fill="white" stroke="white" stroke-width="1.77778"/>
<path d="M287.131 993.252C286.871 993.463 286.614 993.654 286.362 993.825L286.359 993.827C285.194 994.622 284.241 994.941 283.498 994.941C282.901 994.941 282.507 994.759 282.221 994.46C281.939 994.164 281.757 993.73 281.757 993.049C281.757 992.129 282.151 990.383 283.038 987.723L283.039 987.721L287.564 974.052C287.564 974.052 287.564 974.052 287.564 974.051C288.141 972.321 288.47 970.883 288.47 969.792C288.47 969.102 288.212 968.482 287.696 968.022L287.131 993.252ZM287.131 993.252C286.58 993.248 286.175 992.931 285.924 992.603C285.625 992.217 285.494 991.763 285.494 991.292C285.494 990.977 285.596 990.526 285.725 990.042C285.865 989.519 286.071 988.842 286.341 988.015L286.342 988.013L291.019 973.796L291.019 973.795C291.751 971.575 292.08 969.875 292.08 968.663C292.08 967.532 291.755 966.685 291.151 966.055L287.131 993.252ZM270.719 982.653C271.713 981.001 272.687 979.479 273.64 978.087M270.719 982.653C270.719 982.654 270.718 982.654 270.718 982.655L271.48 983.113M270.719 982.653C270.719 982.653 270.719 982.653 270.719 982.652L271.48 983.113M270.719 982.653C269.519 984.634 268.527 986.8 267.74 989.148L267.734 989.167L267.728 989.186L266.296 994.173M273.64 978.087L271.48 983.113M273.64 978.087C273.152 978.75 272.649 979.442 272.132 980.164L270.555 979.4L274.605 965.332L268.072 966.492C268.459 966.622 268.814 966.833 269.128 967.127C269.691 967.642 270.007 968.304 270.007 969.07C270.007 969.448 269.888 970.059 269.712 970.801C269.527 971.581 269.253 972.607 268.89 973.875L268.89 973.877L263.039 994.173M273.64 978.087L262.114 994.173H263.039M271.48 983.113C270.316 985.033 269.351 987.139 268.583 989.431L266.965 995.062M266.296 994.173H266.965V995.062M266.296 994.173L266.111 994.816L266.965 995.062M266.296 994.173H263.039M266.965 995.062H262.783L263.039 994.173" fill="white" stroke="white" stroke-width="1.77778"/>
<path d="M322.924 993.374C321.662 994.494 320.603 994.941 319.739 994.941C319.406 994.941 319.092 994.816 318.757 994.432C318.482 994.114 318.278 993.574 318.278 992.712C318.278 991.554 318.584 989.934 319.26 987.803L319.264 987.793L319.263 987.793L320.566 983.499L318.992 982.724C315.374 987.788 312.146 991.208 309.295 993.073C307.335 994.346 305.535 994.941 303.87 994.941C302.236 994.941 300.812 994.297 299.541 992.933C298.311 991.601 297.65 989.755 297.65 987.29C297.65 984.114 298.752 980.667 301.034 976.922C303.3 973.212 306.295 970.182 310.028 967.859L310.037 967.854L310.037 967.854C311.192 967.116 312.298 966.533 313.357 966.096C311.131 967.305 308.936 969.48 306.768 972.47C303.263 977.305 301.456 982.022 301.456 986.592C301.456 988.45 301.939 990.008 303.023 991.121L303.023 991.122C304.059 992.184 305.345 992.74 306.813 992.74C308.468 992.74 310.168 991.974 311.888 990.63C313.614 989.281 315.437 987.289 317.358 984.689C321.197 979.51 323.222 974.842 323.222 970.734C323.222 969.074 322.683 967.654 321.552 966.578C320.783 965.839 319.873 965.367 318.849 965.144C319.656 965.231 320.349 965.433 320.932 965.739L320.936 965.741C321.761 966.169 322.624 966.9 323.501 967.997L324.574 969.338L325.049 967.687L328.284 956.449C328.284 956.449 328.284 956.449 328.284 956.449C328.398 956.053 328.504 955.683 328.602 955.338C328.828 954.55 329.016 953.895 329.176 953.366L329.178 953.359C329.455 952.419 329.621 951.58 329.621 950.863C329.621 950.14 329.346 949.508 328.826 949.025L328.803 949.003L328.778 948.984C328.424 948.699 328.025 948.496 327.592 948.37L334.245 947.298L322.656 987.04C322.656 987.04 322.655 987.041 322.655 987.041L322.655 987.041L322.924 993.374ZM322.924 993.374C322.505 993.303 322.199 993.028 322.005 992.75" fill="white" stroke="white" stroke-width="1.77778"/>
<path d="M347.685 955.725L347.685 955.725C348.198 955.213 348.437 954.634 348.437 953.946C348.437 953.218 348.197 952.632 347.708 952.143C347.218 951.653 346.633 951.414 345.905 951.414C345.177 951.414 344.592 951.653 344.102 952.143C343.613 952.632 343.374 953.217 343.374 953.946C343.374 954.634 343.613 955.213 344.125 955.725L344.125 955.725C344.638 956.238 345.217 956.477 345.905 956.477C346.593 956.477 347.172 956.238 347.685 955.725ZM339.375 987.991L346.141 965.167L339.77 966.182C340.109 966.295 340.426 966.47 340.707 966.724C341.255 967.218 341.524 967.871 341.524 968.605C341.524 969.033 341.409 969.672 341.228 970.447C341.041 971.25 340.762 972.28 340.393 973.533L340.394 973.533L340.39 973.544L335.644 988.969C335.644 988.97 335.644 988.97 335.644 988.97C335.036 990.957 334.764 992.246 334.764 992.944C334.764 993.537 334.962 993.993 335.346 994.369C335.717 994.732 336.216 994.941 336.9 994.941C337.988 994.941 339.208 994.482 340.574 993.409L340.574 993.409L340.577 993.406C340.661 993.341 340.745 993.275 340.828 993.208C340.718 993.229 340.608 993.24 340.495 993.24C339.938 993.24 339.483 992.987 339.151 992.636L339.133 992.617L339.117 992.598C338.786 992.205 338.617 991.719 338.617 991.176C338.617 990.885 338.71 990.451 338.825 989.985C338.95 989.478 339.135 988.813 339.375 987.994L339.374 987.994L339.375 987.991Z" fill="white" stroke="white" stroke-width="1.77778"/>
<path d="M363.339 993.391C364.729 992.608 366.209 991.5 367.778 990.057C365.54 991.804 363.334 992.74 361.168 992.74C359.778 992.74 358.557 992.185 357.536 991.151C356.462 990.075 355.963 988.619 355.963 986.929C355.963 983.727 357 980.209 359.009 976.405C361.018 972.59 363.34 969.67 365.998 967.673C366.999 966.921 367.997 966.346 368.991 965.975C367.486 966.39 365.895 967.142 364.219 968.253L364.216 968.254C360.728 970.55 357.83 973.602 355.557 977.436L355.556 977.437C353.265 981.283 352.156 984.873 352.156 988.221C352.156 990.424 352.767 992.039 353.891 993.183L353.891 993.183L353.894 993.185C355.046 994.369 356.401 994.941 357.969 994.941C359.685 994.941 361.48 994.437 363.339 993.391ZM374.986 966.436C374.677 966.232 374.336 966.061 373.957 965.928C374.553 966.18 375.088 966.542 375.55 967.024C376.595 968.113 377.017 969.76 377.019 971.746C377.137 976.485 375.501 981.071 372.199 985.501L373.656 986.283L372.902 988.86C372.411 990.63 372.179 992.005 372.179 992.991C372.179 993.782 372.371 994.233 372.609 994.484L372.609 994.484L372.617 994.492C372.863 994.758 373.243 994.941 373.885 994.941C374.753 994.941 375.793 994.558 377.026 993.632C376.658 993.545 376.364 993.32 376.158 993.04L376.138 993.011L376.119 992.982C375.878 992.592 375.753 992.149 375.753 991.665C375.753 991.351 375.823 991.007 375.91 990.682L376.7 987.604L376.703 987.594L376.706 987.583L382.888 965.792L379.524 966.325L378.595 969.268L377.78 971.852L376.906 969.288C376.423 967.869 375.761 966.957 374.986 966.436Z" fill="white" stroke="white" stroke-width="1.77778"/>
<path d="M411.235 993.252C410.975 993.463 410.719 993.654 410.466 993.825L410.464 993.827C409.299 994.622 408.345 994.941 407.602 994.941C407.006 994.941 406.611 994.759 406.326 994.46C406.044 994.164 405.862 993.73 405.862 993.049C405.862 992.129 406.255 990.383 407.143 987.723L407.143 987.721L411.668 974.052C411.669 974.051 411.669 974.051 411.669 974.051C412.245 972.321 412.575 970.883 412.575 969.792C412.575 969.102 412.316 968.482 411.8 968.022L411.235 993.252ZM411.235 993.252C410.684 993.248 410.279 992.931 410.028 992.603C409.729 992.217 409.599 991.763 409.599 991.292C409.599 990.977 409.7 990.526 409.829 990.042C409.969 989.519 410.175 988.842 410.445 988.015L410.446 988.013L415.123 973.796L415.123 973.795C415.856 971.575 416.184 969.875 416.184 968.663C416.184 967.532 415.859 966.685 415.256 966.055C414.645 965.418 413.882 965.096 412.896 965.096C410.94 965.096 408.818 965.971 406.492 967.883C405.342 968.834 403.916 970.317 402.215 972.346C403.865 970.553 405.498 969.199 407.106 968.297C408.127 967.712 409.108 967.367 410.022 967.367C410.681 967.367 411.294 967.572 411.8 968.022L411.235 993.252ZM394.823 982.653C395.818 981 396.792 979.478 397.746 978.085C397.257 978.749 396.754 979.442 396.237 980.164L394.66 979.4L398.71 965.332L392.176 966.492C392.563 966.622 392.919 966.833 393.232 967.127C393.795 967.642 394.111 968.304 394.111 969.07C394.111 969.448 393.992 970.059 393.816 970.801C393.632 971.581 393.357 972.607 392.995 973.875L392.994 973.877L387.143 994.173H390.4L391.833 989.186L391.838 989.167L391.844 989.148C392.631 986.8 393.623 984.634 394.823 982.653Z" fill="white" stroke="white" stroke-width="1.77778"/>
<path d="M439.94 981.259H455.741L456.59 978.499H440.789L439.94 981.259Z" fill="white" stroke="white" stroke-width="1.77778"/>
<path d="M485.081 986.244L485.081 986.245C484.286 989.003 483.475 991.032 482.642 992.23C482.04 993.096 481.136 993.722 480.027 994.151C480.01 994.158 479.992 994.166 479.975 994.173H490.396C489.678 993.942 489.053 993.586 488.62 993.049L488.61 993.037L488.6 993.024C488.196 992.484 488.003 991.863 488.003 991.164C488.003 990.727 488.119 990.103 488.299 989.358C488.485 988.59 488.761 987.617 489.123 986.442L497.146 958.594C497.988 955.458 498.699 953.297 499.302 952.248C499.92 951.164 500.835 950.337 501.999 949.767C502.065 949.732 502.133 949.7 502.202 949.669H492.15C492.721 949.924 493.212 950.289 493.563 950.793C493.975 951.371 494.167 952.057 494.167 952.805C494.167 954.113 493.799 955.97 493.108 958.313C493.108 958.314 493.108 958.315 493.107 958.316L485.081 986.244Z" fill="white" stroke="white" stroke-width="1.77778"/>
<path d="M520.519 965.864H516.967H515.771L516.115 964.719L518.405 957.097C516.411 960.005 514.569 962.152 512.867 963.457C511.341 964.637 509.561 965.563 507.531 966.25H510.824H512.021L511.674 967.397L505.694 987.163L505.694 987.165C504.929 989.679 504.58 991.456 504.58 992.537C504.58 993.3 504.811 993.857 505.233 994.288L520.519 965.864ZM520.519 965.864L520.42 966.25H516.315H515.658L515.465 966.878L509.292 986.991C508.895 988.135 508.593 989.091 508.388 989.856C508.189 990.599 508.062 991.236 508.062 991.7C508.062 992.17 508.164 992.692 508.517 993.101C508.823 993.467 509.245 993.705 509.765 993.705C510.001 993.705 510.234 993.662 510.459 993.59C510.326 993.689 510.195 993.781 510.064 993.868L510.056 993.873L510.056 993.873C508.978 994.606 507.939 994.941 506.914 994.941C506.184 994.941 505.654 994.716 505.234 994.288L520.519 965.864Z" fill="white" stroke="white" stroke-width="1.77778"/>
<path d="M538.374 990.057C536.805 991.499 535.325 992.608 533.935 993.391L538.374 990.057ZM538.374 990.057C536.135 991.804 533.93 992.74 531.764 992.74C530.374 992.74 529.153 992.185 528.132 991.151C527.058 990.075 526.559 988.619 526.559 986.929C526.559 983.726 527.596 980.209 529.605 976.404C531.614 972.59 533.936 969.67 536.593 967.673L538.374 990.057ZM539.587 965.975C538.082 966.39 536.491 967.142 534.814 968.253L534.812 968.254C531.323 970.55 528.426 973.602 526.153 977.436L526.152 977.437C523.86 981.283 522.752 984.873 522.752 988.221C522.752 990.424 523.363 992.039 524.487 993.183L524.487 993.183L524.489 993.185C525.642 994.369 526.997 994.941 528.565 994.941C530.281 994.941 532.075 994.437 533.934 993.391L539.587 965.975ZM539.587 965.975C538.593 966.346 537.595 966.921 536.594 967.673L539.587 965.975ZM547.615 971.746C547.733 976.485 546.097 981.071 542.794 985.501L544.252 986.283L543.498 988.86C543.007 990.63 542.775 992.005 542.775 992.991C542.775 993.782 542.966 994.233 543.205 994.484L543.205 994.484L543.212 994.492C543.459 994.758 543.839 994.941 544.481 994.941C545.348 994.941 546.389 994.558 547.621 993.632C547.254 993.545 546.96 993.32 546.754 993.04L546.733 993.011L546.715 992.982C546.473 992.591 546.349 992.149 546.349 991.665C546.349 991.351 546.419 991.007 546.506 990.682L547.296 987.604L547.299 987.594L547.302 987.583L553.484 965.792L550.119 966.325L549.191 969.268L548.376 971.852L547.502 969.288C547.018 967.869 546.357 966.957 545.581 966.436C545.273 966.232 544.932 966.061 544.553 965.928C545.149 966.18 545.684 966.542 546.146 967.024C547.19 968.113 547.613 969.76 547.615 971.746Z" fill="white" stroke="white" stroke-width="1.77778"/>
<path d="M563.465 987.05L575.085 947.648L568.452 948.714C568.895 948.829 569.295 949.013 569.63 949.292C570.251 949.798 570.605 950.486 570.605 951.305C570.605 951.498 570.564 951.741 570.518 951.974C570.467 952.228 570.393 952.547 570.297 952.926C570.106 953.684 569.82 954.714 569.441 956.01L569.44 956.015L559.865 988.136C559.864 988.136 559.864 988.137 559.864 988.137C559.489 989.4 559.21 990.441 559.026 991.259C558.837 992.096 558.761 992.642 558.761 992.944C558.761 993.467 558.94 993.913 559.351 994.341L559.351 994.341L559.358 994.349C559.73 994.745 560.179 994.941 560.769 994.941C561.693 994.941 562.743 994.596 563.921 993.804C564.221 993.596 564.529 993.357 564.845 993.086C564.715 993.111 564.582 993.124 564.446 993.124C563.885 993.124 563.4 992.876 563.047 992.462L563.047 992.462L563.044 992.458C562.71 992.062 562.545 991.562 562.545 991.036C562.545 990.691 562.644 990.169 562.788 989.558C562.94 988.915 563.166 988.078 563.465 987.053L563.465 987.05Z" fill="white" stroke="white" stroke-width="1.77778"/>
<path d="M591.973 955.725L591.973 955.725C592.486 955.213 592.725 954.634 592.725 953.946C592.725 953.218 592.486 952.632 591.996 952.143C591.506 951.653 590.921 951.414 590.193 951.414C589.465 951.414 588.88 951.653 588.39 952.143C587.901 952.632 587.662 953.217 587.662 953.946C587.662 954.634 587.901 955.213 588.413 955.725L588.413 955.725C588.926 956.238 589.505 956.477 590.193 956.477C590.881 956.477 591.46 956.238 591.973 955.725ZM583.663 987.991L590.429 965.167L584.058 966.182C584.398 966.295 584.714 966.47 584.995 966.724C585.543 967.218 585.812 967.871 585.812 968.605C585.812 969.033 585.697 969.672 585.516 970.447C585.329 971.25 585.05 972.28 584.682 973.533L584.682 973.533L584.678 973.544L579.932 988.969C579.932 988.97 579.932 988.97 579.932 988.97C579.324 990.957 579.052 992.246 579.052 992.944C579.052 993.537 579.25 993.993 579.634 994.369C580.005 994.732 580.504 994.941 581.188 994.941C582.276 994.941 583.496 994.482 584.862 993.409L584.862 993.409L584.865 993.406C584.949 993.341 585.033 993.275 585.116 993.208C585.006 993.229 584.896 993.24 584.783 993.24C584.226 993.24 583.771 992.987 583.439 992.636L583.421 992.617L583.405 992.598C583.074 992.205 582.905 991.719 582.905 991.176C582.905 990.885 582.998 990.452 583.113 989.985C583.238 989.478 583.423 988.813 583.663 987.994L583.663 987.994L583.663 987.991Z" fill="white" stroke="white" stroke-width="1.77778"/>
<path d="M612.067 990.057C610.498 991.5 609.018 992.608 607.628 993.391C605.769 994.437 603.974 994.941 602.258 994.941C600.69 994.941 599.335 994.369 598.183 993.185L598.18 993.183L598.18 993.183C597.056 992.039 596.446 990.424 596.446 988.221C596.446 984.873 597.554 981.283 599.845 977.437L599.846 977.436C602.119 973.602 605.017 970.55 608.506 968.254L608.508 968.253C610.184 967.142 611.775 966.39 613.28 965.975C612.286 966.346 611.288 966.921 610.287 967.673L612.067 990.057ZM612.067 990.057C609.829 991.804 607.623 992.74 605.457 992.74C604.067 992.74 602.846 992.185 601.825 991.151C600.751 990.075 600.252 988.619 600.252 986.929C600.252 983.727 601.289 980.209 603.298 976.405C605.307 972.59 607.629 969.67 610.287 967.673L612.067 990.057ZM619.275 966.436C618.966 966.232 618.625 966.061 618.246 965.928C618.842 966.18 619.377 966.542 619.839 967.024C620.884 968.113 621.306 969.76 621.308 971.746C621.426 976.485 619.79 981.071 616.488 985.501L617.945 986.283L617.191 988.86C616.7 990.63 616.468 992.005 616.468 992.991C616.468 993.782 616.66 994.233 616.898 994.484L616.898 994.484L616.906 994.492C617.152 994.758 617.532 994.941 618.174 994.941C619.042 994.941 620.082 994.558 621.315 993.632C620.947 993.545 620.653 993.32 620.448 993.04L620.427 993.011L620.408 992.982C620.167 992.592 620.042 992.149 620.042 991.665C620.042 991.351 620.112 991.007 620.2 990.682L620.99 987.604L620.992 987.594L620.995 987.583L627.177 965.792L623.813 966.325L622.884 969.268L622.069 971.852L621.195 969.288C620.712 967.869 620.05 966.957 619.275 966.436Z" fill="white" stroke="white" stroke-width="1.77778"/>
<path d="M631.431 994.173L637.282 973.877L637.283 973.875C637.645 972.607 637.92 971.581 638.105 970.801C638.28 970.059 638.399 969.448 638.399 969.07C638.399 968.304 638.083 967.642 637.52 967.127C637.207 966.833 636.851 966.622 636.464 966.492L642.998 965.332L638.948 979.4L640.525 980.164C641.042 979.442 641.545 978.749 642.034 978.085C641.08 979.478 640.106 981 639.111 982.653M631.431 994.173H635.358H634.688M631.431 994.173H634.688M631.431 994.173H634.688M639.111 982.653C639.111 982.654 639.111 982.654 639.11 982.655L639.872 983.113L639.112 982.652C639.112 982.653 639.111 982.653 639.111 982.653ZM639.111 982.653C637.911 984.634 636.919 986.8 636.132 989.148L636.126 989.167L636.121 989.186L634.688 994.173M655.523 993.252C655.263 993.463 655.007 993.654 654.754 993.825L654.752 993.827C653.587 994.622 652.633 994.941 651.891 994.941C651.294 994.941 650.899 994.759 650.614 994.46C650.332 994.164 650.15 993.73 650.15 993.049C650.15 992.129 650.543 990.383 651.431 987.723L651.431 987.721L655.957 974.052C655.957 974.051 655.957 974.051 655.957 974.051L655.957 974.05L655.113 973.771C655.683 972.061 655.974 970.734 655.974 969.792C655.974 969.338 655.811 968.965 655.497 968.686L655.523 993.252ZM655.523 993.252C654.972 993.248 654.567 992.931 654.316 992.603C654.017 992.217 653.887 991.763 653.887 991.292C653.887 990.977 653.988 990.526 654.117 990.042C654.257 989.519 654.463 988.842 654.733 988.015L654.734 988.013L659.411 973.796L659.411 973.795C660.144 971.575 660.472 969.875 660.472 968.663C660.472 967.532 660.147 966.685 659.544 966.055C658.933 965.418 658.17 965.096 657.184 965.096C655.228 965.096 653.106 965.971 650.78 967.883C649.63 968.834 648.204 970.317 646.503 972.347C648.153 970.553 649.786 969.199 651.394 968.297C652.415 967.712 653.396 967.367 654.31 967.367C654.969 967.367 655.582 967.572 656.088 968.022L655.523 993.252Z" fill="white" stroke="white" stroke-width="1.77778"/>
<path d="M271.244 1078.51H278.828C277.774 1078.2 276.886 1077.73 276.19 1077.09L276.19 1077.09C275.529 1076.49 274.925 1075.59 274.357 1074.46C273.785 1073.33 273.225 1071.91 272.676 1070.22C272.675 1070.22 272.675 1070.22 272.675 1070.22L268.232 1056.66L267.909 1055.67L268.93 1055.5C272.757 1054.86 275.705 1053.38 277.838 1051.08L278.456 1051.66L277.838 1051.08C279.997 1048.76 281.032 1046.25 281.032 1043.52C281.032 1040.65 280.016 1038.39 277.993 1036.66L277.991 1036.66C276.012 1034.96 272.635 1034.01 267.645 1034.01H255.176C255.62 1034.2 256.025 1034.45 256.389 1034.76L256.394 1034.76C257.419 1035.65 257.982 1036.77 257.982 1038.1C257.982 1039.26 257.672 1040.8 257.121 1042.69C257.12 1042.69 257.12 1042.69 257.12 1042.69L249.082 1070.66L249.082 1070.66L249.08 1070.66C248.287 1073.37 247.489 1075.36 246.688 1076.55C246.137 1077.4 245.291 1078.02 244.251 1078.45C244.202 1078.47 244.151 1078.49 244.098 1078.51H254.492C254.101 1078.4 253.754 1078.25 253.491 1078.06L253.491 1078.06L253.48 1078.05C252.594 1077.37 252.155 1076.41 252.155 1075.28C252.155 1074.02 252.436 1072.54 252.973 1070.84L257.192 1056.17L257.419 1055.38L258.224 1055.54C259.937 1055.89 261.607 1056.06 263.223 1056.04L263.877 1056.03L264.08 1056.65L271.244 1078.51ZM258.485 1055.34L257.468 1055.2L257.751 1054.21L263.103 1035.6L263.255 1035.07L263.794 1034.97C264.828 1034.78 265.735 1034.68 266.54 1034.68C269.484 1034.68 271.858 1035.38 273.502 1036.93L273.502 1036.93L273.508 1036.94C275.136 1038.5 275.899 1040.69 275.899 1043.38C275.899 1046.85 274.679 1049.79 272.254 1052.14C269.805 1054.52 266.502 1055.65 262.456 1055.65C261.275 1055.65 259.953 1055.54 258.485 1055.34Z" fill="white" stroke="white" stroke-width="1.77778"/>
<path d="M305.975 1035.39L306.159 1034.75H306.83H312.764C314.749 1034.75 316.389 1034.8 317.681 1034.9C318.948 1035.01 319.953 1035.17 320.622 1035.42C322.237 1036.01 323.524 1036.89 324.417 1038.11L324.419 1038.11C325.074 1039.01 325.406 1040.08 325.464 1041.27L327.325 1034.01H298.952C299.202 1034.12 299.431 1034.26 299.632 1034.42C300.469 1035.1 300.866 1036.04 300.866 1037.15C300.866 1038.45 300.524 1040.27 299.879 1042.54L299.878 1042.55L291.84 1070.48C291.84 1070.48 291.839 1070.48 291.839 1070.48C291.008 1073.43 290.258 1075.52 289.554 1076.58C289.027 1077.41 288.206 1078.03 287.195 1078.48L287.195 1078.48L287.184 1078.49C287.162 1078.5 287.138 1078.5 287.115 1078.51H317.782L320.924 1069.29C319.111 1072.05 317.092 1074.12 314.844 1075.45L314.844 1075.45C311.996 1077.12 308.273 1077.92 303.758 1077.92H299.535C298.718 1077.92 298.026 1077.88 297.472 1077.81C296.951 1077.73 296.429 1077.61 296.046 1077.35C295.327 1076.86 294.795 1076.17 294.795 1075.26C294.795 1074.44 295.056 1073.36 295.487 1072.08L300.077 1056.05L300.261 1055.41H300.931H305.504C306.618 1055.41 307.561 1055.44 308.322 1055.52C309.061 1055.59 309.702 1055.71 310.173 1055.91C311.007 1056.25 311.699 1056.79 312.2 1057.54C312.718 1058.31 312.939 1059.27 312.943 1060.34L315.749 1050.48C315.012 1051.67 314.177 1052.61 313.228 1053.25C311.615 1054.35 309.143 1054.81 305.992 1054.81H301.606H300.428L300.751 1053.68L305.975 1035.39Z" fill="white" stroke="white" stroke-width="1.77778"/>
<path d="M351.77 1064.2L351.767 1064.2C350.631 1062.2 347.695 1058.79 343.067 1054.06L343.065 1054.06C340.817 1051.77 339.453 1050.16 338.876 1049.16C337.914 1047.45 337.445 1045.67 337.445 1043.8C337.445 1040.83 338.549 1038.29 340.786 1036.16C343.019 1034.05 345.885 1032.96 349.47 1032.96C350.679 1032.96 351.823 1033.08 352.894 1033.33L352.911 1033.33L352.929 1033.33C353.516 1033.44 354.718 1033.86 356.596 1034.65L356.605 1034.65L356.613 1034.66C356.988 1034.81 357.318 1034.94 357.601 1035.05C358.307 1035.33 358.722 1035.49 358.824 1035.53L358.881 1035.55L358.94 1035.56C359.335 1035.65 359.748 1035.69 360.186 1035.69C361.014 1035.69 361.767 1035.46 362.409 1035.01L362.421 1035L362.42 1035C362.783 1034.74 363.144 1034.34 363.506 1033.84L361.109 1044.18C361.11 1044.16 361.11 1044.14 361.11 1044.12C361.11 1041.14 360.107 1038.66 358.104 1036.72L358.102 1036.72C356.081 1034.77 353.449 1033.84 350.273 1033.84C347.725 1033.84 345.564 1034.6 343.895 1036.16C342.261 1037.69 341.392 1039.52 341.392 1041.61C341.392 1043.4 341.928 1045.08 342.954 1046.65C343.962 1048.2 346.212 1050.62 349.611 1053.87C353.005 1057.13 355.125 1059.6 356.055 1061.3C356.985 1063.01 357.447 1064.8 357.447 1066.72C357.447 1068.91 356.875 1071.03 355.701 1073.1L355.699 1073.1C354.554 1075.15 352.905 1076.72 350.737 1077.85L350.734 1077.85C348.552 1078.99 346.17 1079.56 343.56 1079.56C342.244 1079.56 341.037 1079.44 339.928 1079.21C338.81 1078.97 336.978 1078.38 334.405 1077.41C333.478 1077.06 332.617 1076.84 331.868 1076.84C330.595 1076.84 329.593 1077.45 328.827 1078.47L331.306 1067.17C331.305 1067.25 331.304 1067.33 331.304 1067.41C331.304 1070.72 332.38 1073.5 334.559 1075.64C336.729 1077.78 339.561 1078.83 342.967 1078.83C346.128 1078.83 348.661 1077.84 350.416 1075.77L351.77 1064.2ZM351.77 1064.2C352.56 1065.62 352.942 1067.18 352.942 1068.86C352.942 1071.46 352.101 1073.78 350.416 1075.77L351.77 1064.2Z" fill="white" stroke="white" stroke-width="1.77778"/>
<path d="M370.493 1040.79C370.798 1040.25 371.126 1039.77 371.478 1039.33C372.618 1037.91 374.12 1036.84 375.934 1036.11C375.934 1036.11 375.935 1036.11 375.935 1036.11L370.493 1040.79ZM370.493 1040.79L372.284 1034.01H405.941L403.613 1041.62C403.635 1041.28 403.645 1040.94 403.645 1040.61C403.645 1038.76 403.065 1037.23 401.8 1036.18C401.221 1035.7 400.33 1035.44 399.316 1035.27C398.262 1035.1 396.921 1035.02 395.31 1035.02H391.552H390.881L390.697 1035.67L381.429 1068.34C380.846 1070.19 380.406 1071.69 380.11 1072.84C379.822 1073.97 379.646 1074.85 379.646 1075.41C379.646 1076.55 380.195 1077.45 381.114 1078.1L370.493 1040.79ZM381.881 1078.51H371.612C371.959 1078.39 372.282 1078.24 372.579 1078.06L381.881 1078.51ZM381.881 1078.51C381.596 1078.4 381.339 1078.26 381.114 1078.1L381.881 1078.51ZM374.701 1075.61C374.124 1076.7 373.434 1077.55 372.579 1078.06L374.701 1075.61Z" fill="white" stroke="white" stroke-width="1.77778"/>
<path d="M419.255 1078.51C419.646 1078.36 420.013 1078.16 420.355 1077.93C421.211 1077.36 421.817 1076.46 422.218 1075.34L419.255 1078.51ZM419.255 1078.51H429.639C429.618 1078.51 429.597 1078.5 429.577 1078.49L429.572 1078.49C428.686 1078.11 427.97 1077.51 427.444 1076.71C426.945 1076.01 426.776 1075.1 426.776 1074.12C426.776 1073.5 426.862 1072.29 427.048 1070.49L430.419 1033.3L403.391 1070.21L403.39 1070.21C400.856 1073.67 398.879 1076.01 397.504 1077.14L419.255 1078.51ZM395.161 1078.51H403.519C403.197 1078.37 402.908 1078.19 402.656 1077.96C401.884 1077.28 401.471 1076.42 401.471 1075.41C401.471 1074.71 401.649 1074.01 401.949 1073.31L401.949 1073.31L401.951 1073.3C402.266 1072.58 403.001 1071.47 404.065 1070.04L408.739 1063.66L409.006 1063.3H409.457H422.662H423.639L423.547 1064.27L422.989 1070.14C422.989 1070.14 422.989 1070.14 422.989 1070.14C422.872 1071.46 422.754 1072.54 422.631 1073.39C422.512 1074.23 422.38 1074.89 422.219 1075.34L395.161 1078.51ZM395.161 1078.51C395.999 1078.2 396.781 1077.74 397.504 1077.14L395.161 1078.51ZM423.945 1042.87L425.858 1040.26L425.548 1043.48L423.791 1061.76L423.714 1062.56H422.906H411.295H409.544L410.577 1061.15L423.945 1042.87Z" fill="white" stroke="white" stroke-width="1.77778"/>
<path d="M469.338 1076.9L469.337 1076.9C467.408 1077.82 465.215 1078.27 462.766 1078.27C459.065 1078.27 456.007 1077.37 453.687 1075.47C451.384 1073.6 450.185 1071.24 450.185 1068.43C450.185 1067.23 450.332 1065.94 450.608 1064.58C450.794 1063.55 451.343 1061.5 452.246 1058.45C452.246 1058.45 452.246 1058.45 452.246 1058.45L457.34 1041.21C457.34 1041.21 457.34 1041.2 457.34 1041.2C458.003 1038.9 458.664 1037.2 459.363 1036.22C460.045 1035.24 460.911 1034.53 461.937 1034.12C462.036 1034.08 462.141 1034.05 462.25 1034.01H451.21C451.716 1034.15 452.157 1034.32 452.488 1034.56C453.386 1035.21 453.836 1036.13 453.836 1037.25C453.836 1038.45 453.478 1040.23 452.849 1042.5L452.847 1042.51L452.844 1042.52L448.18 1058.27C448.18 1058.27 448.18 1058.27 448.18 1058.27C447.461 1060.72 447.02 1062.41 446.842 1063.36C446.604 1064.84 446.483 1066.22 446.483 1067.5C446.483 1070.6 447.779 1073.37 450.487 1075.86C453.154 1078.3 456.693 1079.56 461.183 1079.56C465.129 1079.56 468.36 1078.78 470.924 1077.28C473.545 1075.73 475.457 1073.83 476.682 1071.61C477.944 1069.32 479.423 1065.28 481.097 1059.45L481.097 1059.45L486.285 1041.48C486.285 1041.48 486.285 1041.48 486.286 1041.48C486.992 1038.98 487.661 1037.19 488.315 1036.2C488.948 1035.21 489.735 1034.49 490.69 1034.07C490.732 1034.05 490.775 1034.03 490.82 1034.01H483.563C484.066 1034.17 484.51 1034.38 484.865 1034.65L484.866 1034.65C485.748 1035.33 486.249 1036.21 486.249 1037.29C486.249 1037.93 486.101 1038.85 485.845 1040C485.586 1041.18 485.199 1042.65 484.691 1044.43C484.691 1044.43 484.691 1044.43 484.691 1044.43L480.642 1058.58L480.64 1058.58C479.841 1061.3 478.913 1063.98 477.855 1066.62L477.854 1066.62C476.774 1069.31 475.569 1071.47 474.225 1073.09L474.225 1073.09C472.873 1074.73 471.233 1076 469.338 1076.9Z" fill="white" stroke="white" stroke-width="1.77778"/>
<path d="M518.127 1078.51H525.711C524.657 1078.2 523.769 1077.73 523.073 1077.09L523.073 1077.09C522.412 1076.49 521.807 1075.59 521.24 1074.46C520.668 1073.33 520.108 1071.91 519.558 1070.22C519.558 1070.22 519.558 1070.22 519.558 1070.22L515.114 1056.66L514.792 1055.67L515.813 1055.5C519.64 1054.86 522.588 1053.38 524.721 1051.08L525.372 1051.69L524.721 1051.08C526.88 1048.76 527.915 1046.25 527.915 1043.52C527.915 1040.65 526.898 1038.39 524.876 1036.66L524.874 1036.66C522.894 1034.96 519.517 1034.01 514.528 1034.01H502.059C502.503 1034.2 502.908 1034.45 503.272 1034.76L503.277 1034.76C504.302 1035.65 504.864 1036.77 504.864 1038.1C504.864 1039.26 504.555 1040.8 504.003 1042.69C504.003 1042.69 504.003 1042.69 504.003 1042.69L495.965 1070.66L495.965 1070.66L495.963 1070.66C495.17 1073.37 494.372 1075.36 493.571 1076.55C493.02 1077.4 492.174 1078.02 491.134 1078.45C491.085 1078.47 491.034 1078.49 490.981 1078.51H501.375C500.984 1078.4 500.637 1078.25 500.374 1078.06L500.374 1078.06L500.363 1078.05C499.477 1077.37 499.038 1076.41 499.038 1075.28C499.038 1074.02 499.319 1072.54 499.856 1070.84L504.075 1056.17L504.302 1055.38L505.107 1055.54C506.82 1055.89 508.49 1056.06 510.106 1056.04L510.76 1056.03L510.963 1056.65L518.127 1078.51ZM505.368 1055.34L504.351 1055.2L504.634 1054.21L509.986 1035.6L510.138 1035.07L510.677 1034.97C511.711 1034.78 512.618 1034.68 513.423 1034.68C516.367 1034.68 518.741 1035.38 520.385 1036.93L520.385 1036.93L520.391 1036.94C522.019 1038.5 522.781 1040.69 522.781 1043.38C522.781 1046.85 521.562 1049.79 519.137 1052.14C516.688 1054.52 513.385 1055.65 509.339 1055.65C508.158 1055.65 506.836 1055.54 505.368 1055.34Z" fill="white" stroke="white" stroke-width="1.77778"/>
<path d="M554.948 1078.51C555.339 1078.36 555.706 1078.16 556.047 1077.93C556.904 1077.36 557.51 1076.46 557.912 1075.34L554.948 1078.51ZM554.948 1078.51H565.332C565.311 1078.51 565.29 1078.5 565.27 1078.49L565.265 1078.49C564.379 1078.11 563.663 1077.51 563.138 1076.71C562.638 1076.01 562.469 1075.1 562.469 1074.12C562.469 1073.5 562.555 1072.29 562.741 1070.49L566.113 1033.3L539.084 1070.21L539.084 1070.21C536.55 1073.67 534.573 1076.01 533.198 1077.14C532.474 1077.74 531.692 1078.2 530.854 1078.51H539.212C538.891 1078.37 538.601 1078.19 538.349 1077.96C537.578 1077.28 537.164 1076.42 537.164 1075.41C537.164 1074.71 537.342 1074.01 537.642 1073.31L537.642 1073.31L537.645 1073.3C537.959 1072.58 538.694 1071.47 539.758 1070.04L544.433 1063.66L544.699 1063.3H545.15H558.355H559.332L559.24 1064.27L558.682 1070.14C558.682 1070.14 558.682 1070.14 558.682 1070.14C558.565 1071.46 558.447 1072.54 558.325 1073.39C558.205 1074.23 558.073 1074.89 557.912 1075.34L554.948 1078.51ZM559.639 1042.87L561.551 1040.26L561.241 1043.48L559.484 1061.76L559.407 1062.56H558.599H546.988H545.237L546.271 1061.15L559.639 1042.87Z" fill="white" stroke="white" stroke-width="1.77778"/>
<path d="M622.646 1034.04C622.671 1034.03 622.696 1034.02 622.722 1034.01H615.622C615.886 1034.13 616.13 1034.27 616.344 1034.44C617.171 1035.11 617.557 1036.03 617.557 1037.11C617.557 1038.46 617.215 1040.29 616.568 1042.55L616.567 1042.55L608.866 1069.26L608.14 1071.78L607.184 1069.34L593.339 1034.01H586.027C586.48 1034.14 586.887 1034.3 587.245 1034.48C588.45 1035.11 589.497 1036.22 590.428 1037.7L590.639 1038.03L590.529 1038.42L581.083 1071.25L581.079 1071.26L581.075 1071.27C580.251 1073.86 579.483 1075.75 578.724 1076.79L578.718 1076.79L578.712 1076.8C578.147 1077.54 577.321 1078.1 576.32 1078.51H583.459C582.992 1078.37 582.576 1078.19 582.26 1077.94L582.26 1077.94L582.252 1077.93C581.454 1077.28 581.096 1076.35 581.096 1075.28C581.096 1074 581.426 1072.23 582.049 1070.03L582.05 1070.02L590.346 1041.22L591.071 1038.7L592.027 1041.14L606.897 1079.09L617.557 1042.06C617.557 1042.06 617.557 1042.06 617.558 1042.06C618.306 1039.38 619.081 1037.39 619.886 1036.2L619.891 1036.19L619.896 1036.18C620.534 1035.27 621.48 1034.57 622.643 1034.04L622.646 1034.04Z" fill="white" stroke="white" stroke-width="1.77778"/>
<path d="M629.033 1040.79C629.338 1040.25 629.666 1039.77 630.018 1039.33C631.158 1037.91 632.66 1036.84 634.473 1036.11C636.318 1035.37 638.678 1035.02 641.507 1035.02H644.159H645.341L645.013 1036.16L635.543 1069.02L635.542 1069.02C634.592 1072.27 633.825 1074.5 633.241 1075.61L629.033 1040.79ZM629.033 1040.79L630.824 1034.01H664.482L662.153 1041.62C662.175 1041.28 662.185 1040.94 662.185 1040.61C662.185 1038.76 661.605 1037.23 660.34 1036.18C659.761 1035.7 658.87 1035.44 657.856 1035.27C656.802 1035.1 655.461 1035.02 653.851 1035.02H650.093H649.421L649.238 1035.67L639.969 1068.34C639.387 1070.19 638.946 1071.69 638.65 1072.84C638.362 1073.97 638.186 1074.85 638.186 1075.41C638.186 1076.55 638.735 1077.45 639.654 1078.1L629.033 1040.79ZM640.421 1078.51H630.152C630.499 1078.39 630.822 1078.24 631.119 1078.06L640.421 1078.51ZM640.421 1078.51C640.136 1078.4 639.879 1078.26 639.654 1078.1L640.421 1078.51ZM633.241 1075.61C632.664 1076.7 631.974 1077.55 631.119 1078.06L633.241 1075.61Z" fill="white" stroke="white" stroke-width="1.77778"/>
<path d="M190.354 888.417H724.824Z" fill="white"/>
<path d="M190.354 888.417H724.824" stroke="white" stroke-width="5.03929" stroke-miterlimit="22.9256"/>
</svg>
