<svg width="100" height="100" viewBox="0 0 100 100" fill="none" xmlns="http://www.w3.org/2000/svg">
<path d="M93.9719 39.6083C92.12 37.6638 90.1755 35.6544 89.3421 33.6821C88.5782 31.8302 88.5411 29.2699 88.4995 26.5475C88.4346 22.3807 88.3652 17.6629 85.3373 14.6303C82.3094 11.5978 77.5869 11.5329 73.4201 11.4681C70.6977 11.4265 68.1282 11.3894 66.2855 10.6255C64.3132 9.81064 62.3038 7.87999 60.3593 6.0188C57.2665 3.05107 54.0673 0 49.9792 0C45.891 0 42.6918 3.06496 39.5991 6.0188C37.6545 7.87073 35.6452 9.81527 33.6729 10.6486C31.8209 11.4126 29.2606 11.4496 26.5383 11.4913C22.3714 11.5561 17.6536 11.6255 14.621 14.6535C11.5885 17.6814 11.5329 22.3807 11.4681 26.5475C11.4265 29.2699 11.3894 31.8394 10.6255 33.6821C9.81064 35.6544 7.87999 37.6638 6.0188 39.6083C3.05107 42.7011 0 45.9003 0 49.9884C0 54.0766 3.06496 57.2758 6.0188 60.3685C7.87073 62.3131 9.81527 64.3224 10.6486 66.2947C11.4126 68.1467 11.4496 70.707 11.4913 73.4293C11.5561 77.5962 11.6255 82.314 14.6535 85.3465C17.6814 88.3791 22.4038 88.4439 26.5707 88.5087C29.293 88.5504 31.8626 88.5874 33.7053 89.3514C35.6776 90.1662 37.6869 92.0969 39.6315 93.9581C42.7242 96.9258 45.9234 99.9769 50.0116 99.9769C54.0997 99.9769 57.2989 96.9119 60.3917 93.9581C62.3362 92.1061 64.3456 90.1616 66.3179 89.3282C68.1698 88.5643 70.7301 88.5272 73.4525 88.4856C77.6193 88.4208 82.3371 88.3513 85.3697 85.3234C88.4022 82.2955 88.4671 77.573 88.5319 73.4062C88.5735 70.6838 88.6106 68.1143 89.3745 66.2716C90.1894 64.2993 92.12 62.2899 93.9812 60.3454C96.9489 57.2527 100 54.0534 100 49.9653C100 45.8771 96.9258 42.7011 93.9719 39.6083ZM91.2959 57.8036C89.1939 59.9935 87.0179 62.2621 85.9392 64.878C84.9067 67.3735 84.8604 70.4338 84.8141 73.3738C84.7586 77.1702 84.703 80.7815 82.7353 82.7261C80.7676 84.6706 77.1795 84.7493 73.383 84.8049C70.4338 84.8512 67.3642 84.8975 64.8873 85.9299C62.2714 87.0087 60.0028 89.1708 57.8129 91.2866C55.1229 93.8562 52.5904 96.2869 49.9884 96.2869C47.3865 96.2869 44.8539 93.8562 42.1732 91.2866C39.9833 89.1847 37.7147 87.0087 35.0988 85.9299C32.6034 84.8975 29.543 84.8512 26.6031 84.8049C22.8066 84.7493 19.2185 84.6937 17.2508 82.7261C15.2831 80.7584 15.2276 77.1702 15.172 73.3738C15.1257 70.4246 15.0794 67.355 14.0469 64.878C12.9682 62.2621 10.8061 59.9935 8.69022 57.8036C6.12065 55.1229 3.68999 52.5904 3.68999 49.9884C3.68999 47.3865 6.12065 44.8539 8.69022 42.1733C10.7922 39.9833 12.9682 37.7147 14.0469 35.0988C15.0794 32.6034 15.1257 29.543 15.172 26.6031C15.2276 22.8066 15.2831 19.2185 17.2508 17.2508C19.2185 15.2831 22.8066 15.2276 26.6031 15.172C29.5523 15.1257 32.6219 15.0794 35.0988 14.0469C37.7147 12.9682 39.9833 10.8061 42.1732 8.69022C44.8539 6.12065 47.3865 3.68999 49.9884 3.68999C52.5904 3.68999 55.1229 6.12065 57.8036 8.69022C59.9935 10.7922 62.2621 12.9682 64.878 14.0469C67.3735 15.0794 70.4338 15.1257 73.3738 15.172C77.1702 15.2276 80.7815 15.2831 82.7261 17.2508C84.6706 19.2185 84.7493 22.8066 84.8048 26.6031C84.8511 29.5523 84.8974 32.6219 85.9299 35.0988C87.0087 37.7147 89.1708 39.9833 91.2866 42.1733C93.8562 44.8539 96.2869 47.3865 96.2869 49.9884C96.2869 52.5904 93.8562 55.1229 91.2866 57.8036H91.2959ZM69.8273 37.5666C69.9995 37.7386 70.1361 37.9428 70.2293 38.1676C70.3225 38.3924 70.3705 38.6334 70.3705 38.8768C70.3705 39.1202 70.3225 39.3612 70.2293 39.586C70.1361 39.8108 69.9995 40.0151 69.8273 40.187L43.9002 66.1142C43.7282 66.2864 43.5239 66.423 43.2991 66.5162C43.0743 66.6094 42.8333 66.6573 42.5899 66.6573C42.3466 66.6573 42.1056 66.6094 41.8808 66.5162C41.6559 66.423 41.4517 66.2864 41.2797 66.1142L30.1681 55.0025C29.8206 54.6551 29.6253 54.1837 29.6253 53.6923C29.6253 53.2009 29.8206 52.7296 30.1681 52.3821C30.5156 52.0346 30.9869 51.8393 31.4783 51.8393C31.9697 51.8393 32.4411 52.0346 32.7886 52.3821L42.5807 62.1834L67.1976 37.5666C67.3695 37.3944 67.5738 37.2578 67.7986 37.1646C68.0234 37.0714 68.2644 37.0234 68.5078 37.0234C68.7512 37.0234 68.9922 37.0714 69.217 37.1646C69.4418 37.2578 69.6461 37.3944 69.818 37.5666H69.8273Z" fill="#E07A10"/>
</svg>
