<svg width="20" height="16" viewBox="0 0 20 16" fill="none" xmlns="http://www.w3.org/2000/svg">
<path d="M3.15789 0H16.8421C17.6796 0 18.4829 0.332706 19.0751 0.924926C19.6673 1.51715 20 2.32037 20 3.15789V12.6316C20 13.4691 19.6673 14.2723 19.0751 14.8645C18.4829 15.4568 17.6796 15.7895 16.8421 15.7895H3.15789C2.32037 15.7895 1.51715 15.4568 0.924926 14.8645C0.332706 14.2723 0 13.4691 0 12.6316V3.15789C0 2.32037 0.332706 1.51715 0.924926 0.924926C1.51715 0.332706 2.32037 0 3.15789 0ZM3.15789 1.05263C2.63158 1.05263 2.16842 1.23158 1.81053 1.54737L10 6.84211L18.1895 1.54737C17.8316 1.23158 17.3684 1.05263 16.8421 1.05263H3.15789ZM10 8.11579L1.18947 2.4C1.10526 2.63158 1.05263 2.89474 1.05263 3.15789V12.6316C1.05263 13.1899 1.27444 13.7254 1.66925 14.1202C2.06406 14.515 2.59954 14.7368 3.15789 14.7368H16.8421C17.4005 14.7368 17.9359 14.515 18.3308 14.1202C18.7256 13.7254 18.9474 13.1899 18.9474 12.6316V3.15789C18.9474 2.89474 18.8947 2.63158 18.8105 2.4L10 8.11579Z" fill="#A1A1A1"/>
</svg>
