<svg width="20" height="16" viewBox="0 0 20 16" fill="none" xmlns="http://www.w3.org/2000/svg">
<path d="M0.526316 0.526316V0C0.386728 0 0.252858 0.0554511 0.154154 0.154154C0.0554511 0.252858 0 0.386728 0 0.526316H0.526316ZM19.4737 0.526316H20C20 0.386728 19.9446 0.252858 19.8458 0.154154C19.7471 0.0554511 19.6133 0 19.4737 0V0.526316ZM0.526316 1.05263H19.4737V0H0.526316V1.05263ZM18.9474 0.526316V13.1579H20V0.526316H18.9474ZM17.3684 14.7368H2.63158V15.7895H17.3684V14.7368ZM1.05263 13.1579V0.526316H0V13.1579H1.05263ZM2.63158 14.7368C2.21282 14.7368 1.8112 14.5705 1.51509 14.2744C1.21898 13.9783 1.05263 13.5767 1.05263 13.1579H0C0 13.8558 0.277255 14.5252 0.770772 15.0187C1.26429 15.5122 1.93364 15.7895 2.63158 15.7895V14.7368ZM18.9474 13.1579C18.9474 13.5767 18.781 13.9783 18.4849 14.2744C18.1888 14.5705 17.7872 14.7368 17.3684 14.7368V15.7895C18.0664 15.7895 18.7357 15.5122 19.2292 15.0187C19.7227 14.5252 20 13.8558 20 13.1579H18.9474Z" fill="#E07A10"/>
<path d="M0.526367 0.526306L10.0001 9.99999L19.4737 0.526306" stroke="#E07A10" stroke-linecap="round" stroke-linejoin="round"/>
</svg>
