<svg width="92" height="77" viewBox="0 0 92 77" fill="none" xmlns="http://www.w3.org/2000/svg">
<path d="M47.1253 5.50012C28.9004 5.50012 14.124 20.275 14.124 38.4999C14.124 56.7232 28.9019 71.4996 47.1253 71.4996C65.3487 71.4996 80.125 56.7232 80.125 38.4999C80.125 20.275 65.3487 5.50012 47.1253 5.50012ZM47.1238 62.4997C33.8684 62.4997 23.1225 52.1183 23.1225 39.3084C23.1225 39.0354 23.16 38.7699 23.169 38.4999C23.16 38.2299 23.1225 37.9629 23.1225 37.6914C23.1225 24.8815 33.8699 14.5001 47.1238 14.5001C60.3777 14.5001 71.1236 24.8815 71.1236 37.6914C71.1236 37.9629 71.0921 38.2299 71.0846 38.4999C71.0936 38.7699 71.1236 39.0354 71.1236 39.3084C71.1221 52.1183 60.3792 62.4997 47.1238 62.4997Z" stroke="#E07A10" stroke-width="1.5"/>
<path d="M3.22212 1.63164C3.58212 0.220146 4.29462 1.61514 4.29462 1.61514C4.29462 1.61514 4.54362 16.225 6.1636 16.384C7.78359 16.543 6.5356 1.35114 8.45259 1.06014C10.2346 0.776641 9.21758 16.6255 10.8406 16.465C12.4576 16.294 12.7306 1.69013 12.7306 1.69013C12.7306 1.69013 13.4505 0.296645 13.806 1.69764C18.198 18.9625 14.6445 26.02 14.6445 26.02C14.6445 26.02 14.0445 27.5034 12.6196 27.5109C12.4861 27.5034 12.5866 68.5146 12.5776 74.0286C12.5806 76.7091 4.32762 76.6266 4.33212 73.9581C4.33812 68.4441 4.49862 27.4374 4.36962 27.4404C2.94013 27.4404 2.34163 25.9585 2.34163 25.9585C2.34163 25.9585 -1.19834 18.9055 3.22212 1.63164ZM81.4301 1.00014C83.287 0.99564 90.991 6.5501 91 27.1929C91.009 33.7944 87.4075 33.7929 87.4135 37.9224C87.4195 42.0443 87.442 74.8311 87.442 74.8311C87.442 74.8311 83.491 77.5416 80.5541 74.7051L80.5001 1.58664C80.5031 1.58814 80.4926 0.99864 81.4301 1.00014Z" stroke="#E07A10" stroke-width="1.5"/>
</svg>
