<svg width="20" height="20" viewBox="0 0 20 20" fill="none" xmlns="http://www.w3.org/2000/svg">
<path d="M16.0064 6.65204C15.9327 5.16563 15.31 3.75472 14.2527 2.69739C13.1952 1.64008 11.7845 1.01729 10.298 0.943629L9.99993 0.936314C8.40499 0.93637 6.87499 1.56959 5.74719 2.69739C4.6194 3.82519 3.98617 5.35518 3.98612 6.95012L3.99343 7.20066C4.07067 8.47513 4.7226 10.0981 5.81577 12.0322C6.88984 13.9324 8.35455 16.0689 9.99993 18.3834C11.6453 16.0689 13.11 13.9324 14.1841 12.0322C15.3501 9.96915 16.0137 8.25988 16.0137 6.95012L16.0064 6.65204ZM16.9418 7.24912C16.8521 8.75918 16.1 10.5439 14.9988 12.4921C13.8147 14.5869 12.1813 16.9468 10.3812 19.4669L9.99993 20L9.61955 19.4669C7.81946 16.9468 6.18511 14.5869 5.00107 12.4921C3.89996 10.544 3.14868 8.75912 3.05895 7.24912L3.0498 6.95012C3.04986 5.10685 3.7818 3.33878 5.08519 2.03539C6.38858 0.731996 8.15666 5.59102e-05 9.99993 0L10.3446 0.00822932C12.0625 0.0934109 13.6927 0.813502 14.9147 2.03539C16.2181 3.33878 16.95 5.10685 16.95 6.95012L16.9418 7.24912Z" fill="#E07A10"/>
<path d="M12.4009 6.7119C12.346 6.15962 12.1018 5.64025 11.7059 5.24433C11.3101 4.8485 10.7906 4.60433 10.2384 4.54941L9.99973 4.53753C9.35981 4.53753 8.746 4.79184 8.29351 5.24433C7.84102 5.69682 7.5867 6.31063 7.5867 6.95055L7.59859 7.1892C7.65351 7.7414 7.89768 8.26092 8.29351 8.65676C8.74598 9.10912 9.35991 9.36357 9.99973 9.36357L10.2384 9.35168C10.7906 9.29677 11.3101 9.0526 11.7059 8.65676C12.1584 8.20432 12.4127 7.59039 12.4127 6.95055L12.4009 6.7119ZM13.3445 7.11605C13.3035 7.94396 12.9569 8.72985 12.3679 9.31876C11.779 9.90768 10.9931 10.2543 10.1652 10.2953L9.99973 10.2999C9.11158 10.2999 8.25957 9.94671 7.63151 9.31876C7.0426 8.72986 6.69595 7.94395 6.65496 7.11605L6.65039 6.95055C6.65039 6.0623 7.00343 5.21041 7.63151 4.58233C8.25959 3.95425 9.11148 3.60121 9.99973 3.60121L10.1652 3.60578C10.9931 3.64677 11.779 3.99342 12.3679 4.58233C12.9959 5.21039 13.3491 6.0624 13.3491 6.95055L13.3445 7.11605Z" fill="#E07A10"/>
</svg>
