<svg width="10" height="10" viewBox="0 0 10 10" fill="none" xmlns="http://www.w3.org/2000/svg">
<path d="M2.46549 7.97183C1.87776 8.34387 1.2005 8.60328 0.48114 8.7319C-0.12519 8.83896 -0.171831 9.55264 0.417539 9.71679C2.43157 10.2735 4.72545 10.0201 6.54869 8.8675C8.43128 7.67922 9.3641 5.82008 9.22417 3.97878C9.10545 2.39083 6.93877 1.54512 5.42507 2.50145C5.10726 2.70057 4.85409 2.96378 4.68885 3.26684C4.52362 3.56991 4.45163 3.90309 4.47953 4.2357C4.60249 5.63809 3.89864 7.06546 2.46549 7.97183Z" fill="#F8312F"/>
<path d="M7.19303 0.356841C7.19303 0.262201 7.14836 0.171437 7.06884 0.104516C6.98932 0.0375957 6.88148 0 6.76902 0C6.65657 0 6.54872 0.0375957 6.4692 0.104516C6.38969 0.171437 6.34501 0.262201 6.34501 0.356841V1.08123H5.66236C4.48786 1.08123 3.53809 1.88055 3.53809 2.86544C3.53809 3.24726 3.73313 3.6148 4.07233 3.87173L4.07658 3.8753C4.38186 4.10724 4.84827 4.10724 5.15355 3.8753C5.45884 3.64335 5.92525 3.64335 6.23053 3.8753C6.53582 4.10724 7.00223 4.10724 7.30751 3.8753C7.6128 3.64335 8.0792 3.64335 8.38449 3.8753C8.68978 4.10724 9.15618 4.10724 9.46147 3.8753L9.46571 3.87173C9.63351 3.74482 9.76777 3.58967 9.8598 3.41633C9.95183 3.24298 9.99958 3.0553 9.99996 2.86544C9.99996 1.88055 9.05018 1.08123 7.87992 1.08123H7.19303V0.356841Z" fill="#00D26A"/>
</svg>
