<svg width="50" height="50" viewBox="0 0 50 50" fill="none" xmlns="http://www.w3.org/2000/svg">
<g clip-path="url(#clip0_228_2)">
<path d="M27.2366 25L33.9866 18.25C34.2141 17.9843 34.333 17.6425 34.3195 17.293C34.306 16.9434 34.1611 16.6118 33.9137 16.3645C33.6664 16.1171 33.3348 15.9722 32.9852 15.9587C32.6357 15.9452 32.2939 16.0641 32.0282 16.2916L25.2782 22.9722L18.4866 16.1805C18.2209 15.953 17.8791 15.8341 17.5295 15.8476C17.18 15.8611 16.8484 16.006 16.6011 16.2534C16.3537 16.5007 16.2088 16.8323 16.1953 17.1818C16.1818 17.5314 16.3007 17.8732 16.5282 18.1389L23.306 25L16.6671 31.5555C16.5217 31.68 16.4036 31.8333 16.3203 32.0056C16.2369 32.1779 16.1901 32.3656 16.1827 32.5568C16.1753 32.7481 16.2075 32.9389 16.2773 33.1171C16.3472 33.2953 16.4531 33.4572 16.5884 33.5925C16.7238 33.7279 16.8857 33.8338 17.0639 33.9036C17.2421 33.9735 17.4329 34.0057 17.6241 33.9983C17.8154 33.9909 18.0031 33.9441 18.1754 33.8607C18.3477 33.7773 18.5009 33.6592 18.6255 33.5139L25.2505 26.8889L31.8338 33.4722C32.0995 33.6997 32.4413 33.8186 32.7908 33.8051C33.1404 33.7916 33.4719 33.6467 33.7193 33.3994C33.9666 33.152 34.1115 32.8204 34.1251 32.4709C34.1386 32.1213 34.0197 31.7796 33.7921 31.5139L27.2366 25Z" fill="#eb6559"/>
<path d="M24.9996 47.2222C20.6044 47.2222 16.308 45.9189 12.6536 43.477C8.99914 41.0352 6.15087 37.5646 4.46892 33.504C2.78697 29.4434 2.3469 24.9753 3.20435 20.6646C4.0618 16.3539 6.17826 12.3943 9.28609 9.28646C12.3939 6.17862 16.3535 4.06216 20.6642 3.20471C24.9749 2.34726 29.4431 2.78734 33.5037 4.46929C37.5642 6.15123 41.0349 8.99951 43.4767 12.6539C45.9185 16.3084 47.2218 20.6048 47.2218 24.9999C47.2218 30.8936 44.8805 36.546 40.7131 40.7134C36.5456 44.8809 30.8933 47.2222 24.9996 47.2222ZM24.9996 5.5555C21.1538 5.5555 17.3944 6.69589 14.1968 8.83248C10.9992 10.9691 8.50696 14.0059 7.03525 17.5589C5.56355 21.1119 5.17848 25.0215 5.92875 28.7934C6.67902 32.5652 8.53092 36.0299 11.2503 38.7492C13.9696 41.4686 17.4343 43.3205 21.2062 44.0708C24.978 44.821 28.8876 44.436 32.4406 42.9643C35.9937 41.4926 39.0305 39.0003 41.167 35.8027C43.3036 32.6051 44.444 28.8457 44.444 24.9999C44.444 19.843 42.3954 14.8972 38.7489 11.2506C35.1023 7.6041 30.1566 5.5555 24.9996 5.5555Z" fill="#eb6559"/>
</g>
<defs>
<clipPath id="clip0_228_2">
<rect width="50" height="50" fill="white"/>
</clipPath>
</defs>
</svg>
