<svg width="24" height="30" viewBox="0 0 24 30" fill="none" xmlns="http://www.w3.org/2000/svg">
<path d="M10.9395 0.439184C11.2208 0.157975 11.6023 0 12 0C12.3977 0 12.7792 0.157975 13.0605 0.439184L17.5605 4.93923C17.8337 5.22214 17.9849 5.60105 17.9815 5.99435C17.9781 6.38764 17.8203 6.76387 17.5422 7.04198C17.2641 7.3201 16.8879 7.47785 16.4946 7.48127C16.1013 7.48469 15.7224 7.33349 15.4395 7.06025L13.5 5.12073V19.4999C13.5 19.8977 13.342 20.2793 13.0607 20.5606C12.7794 20.8419 12.3978 20.9999 12 20.9999C11.6022 20.9999 11.2206 20.8419 10.9393 20.5606C10.658 20.2793 10.5 19.8977 10.5 19.4999V5.12073L8.5605 7.06025C8.2776 7.33349 7.89869 7.48469 7.5054 7.48127C7.1121 7.47785 6.73588 7.3201 6.45777 7.04198C6.17966 6.76387 6.02191 6.38764 6.01849 5.99435C6.01507 5.60105 6.16626 5.22214 6.4395 4.93923L10.9395 0.439184ZM0 13.4998C0 12.7042 0.31607 11.9411 0.87868 11.3785C1.44129 10.8159 2.20435 10.4998 3 10.4998H6C6.39782 10.4998 6.77936 10.6578 7.06066 10.9391C7.34196 11.2204 7.5 11.602 7.5 11.9998C7.5 12.3976 7.34196 12.7792 7.06066 13.0605C6.77936 13.3418 6.39782 13.4998 6 13.4998H3V27H21V13.4998H18C17.6022 13.4998 17.2206 13.3418 16.9393 13.0605C16.658 12.7792 16.5 12.3976 16.5 11.9998C16.5 11.602 16.658 11.2204 16.9393 10.9391C17.2206 10.6578 17.6022 10.4998 18 10.4998H21C21.7956 10.4998 22.5587 10.8159 23.1213 11.3785C23.6839 11.9411 24 12.7042 24 13.4998V27C24 27.7956 23.6839 28.5587 23.1213 29.1213C22.5587 29.6839 21.7956 30 21 30H3C2.20435 30 1.44129 29.6839 0.87868 29.1213C0.31607 28.5587 0 27.7956 0 27V13.4998Z" fill="black"/>
</svg>
